<?xml version="1.0" encoding="utf-8" standalone="no"?>
<!DOCTYPE svg PUBLIC "-//W3C//DTD SVG 1.1//EN"
  "http://www.w3.org/Graphics/SVG/1.1/DTD/svg11.dtd">
<svg xmlns:xlink="http://www.w3.org/1999/xlink" width="640.063118pt" height="209.69pt" viewBox="0 0 640.063118 209.69" xmlns="http://www.w3.org/2000/svg" version="1.1">
 <metadata>
  <rdf:RDF xmlns:dc="http://purl.org/dc/elements/1.1/" xmlns:cc="http://creativecommons.org/ns#" xmlns:rdf="http://www.w3.org/1999/02/22-rdf-syntax-ns#">
   <cc:Work>
    <dc:type rdf:resource="http://purl.org/dc/dcmitype/StillImage"/>
    <dc:date>2025-12-10T09:15:18.433709</dc:date>
    <dc:format>image/svg+xml</dc:format>
    <dc:creator>
     <cc:Agent>
      <dc:title>Matplotlib v3.10.7, https://matplotlib.org/</dc:title>
     </cc:Agent>
    </dc:creator>
   </cc:Work>
  </rdf:RDF>
 </metadata>
 <defs>
  <style type="text/css">*{stroke-linejoin: round; stroke-linecap: butt}</style>
 </defs>
 <g id="figure_1">
  <g id="patch_1">
   <path d="M 0 209.69 
L 640.063118 209.69 
L 640.063118 0 
L 0 0 
z
" style="fill: #ffffff"/>
  </g>
  <g id="axes_1">
   <g id="patch_2">
    <path d="M 52.079375 170.198125 
L 175.59761 170.198125 
L 175.59761 22.318125 
L 52.079375 22.318125 
z
" style="fill: #ffffff"/>
   </g>
   <g id="matplotlib.axis_1">
    <g id="xtick_1">
     <g id="line2d_1">
      <path d="M 110.883511 170.198125 
L 110.883511 22.318125 
" clip-path="url(#pe580b920b7)" style="fill: none; stroke-dasharray: 2.96,1.28; stroke-dashoffset: 0; stroke: #b0b0b0; stroke-opacity: 0.7; stroke-width: 0.8"/>
     </g>
     <g id="line2d_2">
      <defs>
       <path id="m2483642367" d="M 0 0 
L 0 3.5 
" style="stroke: #000000; stroke-width: 0.8"/>
      </defs>
      <g>
       <use xlink:href="#m2483642367" x="110.883511" y="170.198125" style="stroke: #000000; stroke-width: 0.8"/>
      </g>
     </g>
     <g id="text_1">
      <!-- 10 -->
      <g transform="translate(104.521011 184.796562) scale(0.1 -0.1)">
       <defs>
        <path id="DejaVuSans-31" d="M 794 531 
L 1825 531 
L 1825 4091 
L 703 3866 
L 703 4441 
L 1819 4666 
L 2450 4666 
L 2450 531 
L 3481 531 
L 3481 0 
L 794 0 
L 794 531 
z
" transform="scale(0.015625)"/>
        <path id="DejaVuSans-30" d="M 2034 4250 
Q 1547 4250 1301 3770 
Q 1056 3291 1056 2328 
Q 1056 1369 1301 889 
Q 1547 409 2034 409 
Q 2525 409 2770 889 
Q 3016 1369 3016 2328 
Q 3016 3291 2770 3770 
Q 2525 4250 2034 4250 
z
M 2034 4750 
Q 2819 4750 3233 4129 
Q 3647 3509 3647 2328 
Q 3647 1150 3233 529 
Q 2819 -91 2034 -91 
Q 1250 -91 836 529 
Q 422 1150 422 2328 
Q 422 3509 836 4129 
Q 1250 4750 2034 4750 
z
" transform="scale(0.015625)"/>
       </defs>
       <use xlink:href="#DejaVuSans-31"/>
       <use xlink:href="#DejaVuSans-30" transform="translate(63.623047 0)"/>
      </g>
     </g>
    </g>
    <g id="xtick_2">
     <g id="line2d_3">
      <path d="M 169.983145 170.198125 
L 169.983145 22.318125 
" clip-path="url(#pe580b920b7)" style="fill: none; stroke-dasharray: 2.96,1.28; stroke-dashoffset: 0; stroke: #b0b0b0; stroke-opacity: 0.7; stroke-width: 0.8"/>
     </g>
     <g id="line2d_4">
      <g>
       <use xlink:href="#m2483642367" x="169.983145" y="170.198125" style="stroke: #000000; stroke-width: 0.8"/>
      </g>
     </g>
     <g id="text_2">
      <!-- 20 -->
      <g transform="translate(163.620645 184.796562) scale(0.1 -0.1)">
       <defs>
        <path id="DejaVuSans-32" d="M 1228 531 
L 3431 531 
L 3431 0 
L 469 0 
L 469 531 
Q 828 903 1448 1529 
Q 2069 2156 2228 2338 
Q 2531 2678 2651 2914 
Q 2772 3150 2772 3378 
Q 2772 3750 2511 3984 
Q 2250 4219 1831 4219 
Q 1534 4219 1204 4116 
Q 875 4013 500 3803 
L 500 4441 
Q 881 4594 1212 4672 
Q 1544 4750 1819 4750 
Q 2544 4750 2975 4387 
Q 3406 4025 3406 3419 
Q 3406 3131 3298 2873 
Q 3191 2616 2906 2266 
Q 2828 2175 2409 1742 
Q 1991 1309 1228 531 
z
" transform="scale(0.015625)"/>
       </defs>
       <use xlink:href="#DejaVuSans-32"/>
       <use xlink:href="#DejaVuSans-30" transform="translate(63.623047 0)"/>
      </g>
     </g>
    </g>
    <g id="text_3">
     <!-- Epoch -->
     <g transform="translate(93.494743 199.994375) scale(0.12 -0.12)">
      <defs>
       <path id="DejaVuSans-BoldOblique-45" d="M 1044 4666 
L 4288 4666 
L 4109 3756 
L 2069 3756 
L 1900 2888 
L 3822 2888 
L 3641 1978 
L 1722 1978 
L 1516 909 
L 3622 909 
L 3450 0 
L 134 0 
L 1044 4666 
z
" transform="scale(0.015625)"/>
       <path id="DejaVuSans-BoldOblique-70" d="M 1422 506 
L 1063 -1331 
L -63 -1331 
L 878 3500 
L 2003 3500 
L 1900 2988 
Q 2156 3294 2437 3439 
Q 2719 3584 3053 3584 
Q 3644 3584 3987 3209 
Q 4331 2834 4331 2188 
Q 4331 1784 4211 1403 
Q 4091 1022 3866 709 
Q 3581 316 3223 112 
Q 2866 -91 2456 -91 
Q 2097 -91 1845 54 
Q 1594 200 1422 506 
z
M 2597 2772 
Q 2166 2772 1892 2373 
Q 1619 1975 1619 1338 
Q 1619 1050 1773 886 
Q 1928 722 2203 722 
Q 2625 722 2900 1114 
Q 3175 1506 3175 2119 
Q 3175 2438 3026 2605 
Q 2878 2772 2597 2772 
z
" transform="scale(0.015625)"/>
       <path id="DejaVuSans-BoldOblique-6f" d="M 2400 2784 
Q 1966 2784 1684 2390 
Q 1403 1997 1403 1388 
Q 1403 1056 1554 882 
Q 1706 709 1997 709 
Q 2431 709 2712 1104 
Q 2994 1500 2994 2113 
Q 2994 2441 2842 2612 
Q 2691 2784 2400 2784 
z
M 2491 3584 
Q 3272 3584 3719 3187 
Q 4166 2791 4166 2106 
Q 4166 1709 4025 1336 
Q 3884 963 3616 653 
Q 3297 284 2862 96 
Q 2428 -91 1894 -91 
Q 1122 -91 676 306 
Q 231 703 231 1388 
Q 231 1781 375 2157 
Q 519 2534 788 2847 
Q 1100 3209 1533 3396 
Q 1966 3584 2491 3584 
z
" transform="scale(0.015625)"/>
       <path id="DejaVuSans-BoldOblique-63" d="M 3719 3391 
L 3541 2478 
Q 3316 2628 3097 2706 
Q 2878 2784 2669 2784 
Q 2122 2784 1775 2417 
Q 1428 2050 1428 1478 
Q 1428 1113 1643 911 
Q 1859 709 2253 709 
Q 2516 709 2769 787 
Q 3022 866 3250 1019 
L 3078 103 
Q 2800 6 2519 -42 
Q 2238 -91 1953 -91 
Q 1128 -91 683 279 
Q 238 650 238 1331 
Q 238 1759 402 2162 
Q 566 2566 872 2888 
Q 1213 3241 1653 3412 
Q 2094 3584 2669 3584 
Q 2934 3584 3196 3536 
Q 3459 3488 3719 3391 
z
" transform="scale(0.015625)"/>
       <path id="DejaVuSans-BoldOblique-68" d="M 4128 2131 
L 3713 0 
L 2591 0 
L 2944 1825 
Q 2981 2003 3001 2126 
Q 3022 2250 3022 2322 
Q 3022 2522 2911 2631 
Q 2800 2741 2597 2741 
Q 2250 2741 2001 2470 
Q 1753 2200 1656 1722 
L 1319 0 
L 197 0 
L 1141 4863 
L 2266 4863 
L 1900 2988 
Q 2209 3291 2521 3437 
Q 2834 3584 3175 3584 
Q 3659 3584 3921 3331 
Q 4184 3078 4184 2619 
Q 4184 2519 4170 2397 
Q 4156 2275 4128 2131 
z
" transform="scale(0.015625)"/>
      </defs>
      <use xlink:href="#DejaVuSans-BoldOblique-45"/>
      <use xlink:href="#DejaVuSans-BoldOblique-70" transform="translate(68.310547 0)"/>
      <use xlink:href="#DejaVuSans-BoldOblique-6f" transform="translate(139.892578 0)"/>
      <use xlink:href="#DejaVuSans-BoldOblique-63" transform="translate(208.59375 0)"/>
      <use xlink:href="#DejaVuSans-BoldOblique-68" transform="translate(267.871094 0)"/>
     </g>
    </g>
   </g>
   <g id="matplotlib.axis_2">
    <g id="ytick_1">
     <g id="line2d_5">
      <path d="M 52.079375 167.608637 
L 175.59761 167.608637 
" clip-path="url(#pe580b920b7)" style="fill: none; stroke-dasharray: 2.96,1.28; stroke-dashoffset: 0; stroke: #b0b0b0; stroke-opacity: 0.7; stroke-width: 0.8"/>
     </g>
     <g id="line2d_6">
      <defs>
       <path id="m10153a1bd7" d="M 0 0 
L -3.5 0 
" style="stroke: #000000; stroke-width: 0.8"/>
      </defs>
      <g>
       <use xlink:href="#m10153a1bd7" x="52.079375" y="167.608637" style="stroke: #000000; stroke-width: 0.8"/>
      </g>
     </g>
     <g id="text_4">
      <!-- 0.25 -->
      <g transform="translate(22.81375 171.407856) scale(0.1 -0.1)">
       <defs>
        <path id="DejaVuSans-2e" d="M 684 794 
L 1344 794 
L 1344 0 
L 684 0 
L 684 794 
z
" transform="scale(0.015625)"/>
        <path id="DejaVuSans-35" d="M 691 4666 
L 3169 4666 
L 3169 4134 
L 1269 4134 
L 1269 2991 
Q 1406 3038 1543 3061 
Q 1681 3084 1819 3084 
Q 2600 3084 3056 2656 
Q 3513 2228 3513 1497 
Q 3513 744 3044 326 
Q 2575 -91 1722 -91 
Q 1428 -91 1123 -41 
Q 819 9 494 109 
L 494 744 
Q 775 591 1075 516 
Q 1375 441 1709 441 
Q 2250 441 2565 725 
Q 2881 1009 2881 1497 
Q 2881 1984 2565 2268 
Q 2250 2553 1709 2553 
Q 1456 2553 1204 2497 
Q 953 2441 691 2322 
L 691 4666 
z
" transform="scale(0.015625)"/>
       </defs>
       <use xlink:href="#DejaVuSans-30"/>
       <use xlink:href="#DejaVuSans-2e" transform="translate(63.623047 0)"/>
       <use xlink:href="#DejaVuSans-32" transform="translate(95.410156 0)"/>
       <use xlink:href="#DejaVuSans-35" transform="translate(159.033203 0)"/>
      </g>
     </g>
    </g>
    <g id="ytick_2">
     <g id="line2d_7">
      <path d="M 52.079375 145.824528 
L 175.59761 145.824528 
" clip-path="url(#pe580b920b7)" style="fill: none; stroke-dasharray: 2.96,1.28; stroke-dashoffset: 0; stroke: #b0b0b0; stroke-opacity: 0.7; stroke-width: 0.8"/>
     </g>
     <g id="line2d_8">
      <g>
       <use xlink:href="#m10153a1bd7" x="52.079375" y="145.824528" style="stroke: #000000; stroke-width: 0.8"/>
      </g>
     </g>
     <g id="text_5">
      <!-- 0.30 -->
      <g transform="translate(22.81375 149.623747) scale(0.1 -0.1)">
       <defs>
        <path id="DejaVuSans-33" d="M 2597 2516 
Q 3050 2419 3304 2112 
Q 3559 1806 3559 1356 
Q 3559 666 3084 287 
Q 2609 -91 1734 -91 
Q 1441 -91 1130 -33 
Q 819 25 488 141 
L 488 750 
Q 750 597 1062 519 
Q 1375 441 1716 441 
Q 2309 441 2620 675 
Q 2931 909 2931 1356 
Q 2931 1769 2642 2001 
Q 2353 2234 1838 2234 
L 1294 2234 
L 1294 2753 
L 1863 2753 
Q 2328 2753 2575 2939 
Q 2822 3125 2822 3475 
Q 2822 3834 2567 4026 
Q 2313 4219 1838 4219 
Q 1578 4219 1281 4162 
Q 984 4106 628 3988 
L 628 4550 
Q 988 4650 1302 4700 
Q 1616 4750 1894 4750 
Q 2613 4750 3031 4423 
Q 3450 4097 3450 3541 
Q 3450 3153 3228 2886 
Q 3006 2619 2597 2516 
z
" transform="scale(0.015625)"/>
       </defs>
       <use xlink:href="#DejaVuSans-30"/>
       <use xlink:href="#DejaVuSans-2e" transform="translate(63.623047 0)"/>
       <use xlink:href="#DejaVuSans-33" transform="translate(95.410156 0)"/>
       <use xlink:href="#DejaVuSans-30" transform="translate(159.033203 0)"/>
      </g>
     </g>
    </g>
    <g id="ytick_3">
     <g id="line2d_9">
      <path d="M 52.079375 124.040419 
L 175.59761 124.040419 
" clip-path="url(#pe580b920b7)" style="fill: none; stroke-dasharray: 2.96,1.28; stroke-dashoffset: 0; stroke: #b0b0b0; stroke-opacity: 0.7; stroke-width: 0.8"/>
     </g>
     <g id="line2d_10">
      <g>
       <use xlink:href="#m10153a1bd7" x="52.079375" y="124.040419" style="stroke: #000000; stroke-width: 0.8"/>
      </g>
     </g>
     <g id="text_6">
      <!-- 0.35 -->
      <g transform="translate(22.81375 127.839638) scale(0.1 -0.1)">
       <use xlink:href="#DejaVuSans-30"/>
       <use xlink:href="#DejaVuSans-2e" transform="translate(63.623047 0)"/>
       <use xlink:href="#DejaVuSans-33" transform="translate(95.410156 0)"/>
       <use xlink:href="#DejaVuSans-35" transform="translate(159.033203 0)"/>
      </g>
     </g>
    </g>
    <g id="ytick_4">
     <g id="line2d_11">
      <path d="M 52.079375 102.256311 
L 175.59761 102.256311 
" clip-path="url(#pe580b920b7)" style="fill: none; stroke-dasharray: 2.96,1.28; stroke-dashoffset: 0; stroke: #b0b0b0; stroke-opacity: 0.7; stroke-width: 0.8"/>
     </g>
     <g id="line2d_12">
      <g>
       <use xlink:href="#m10153a1bd7" x="52.079375" y="102.256311" style="stroke: #000000; stroke-width: 0.8"/>
      </g>
     </g>
     <g id="text_7">
      <!-- 0.40 -->
      <g transform="translate(22.81375 106.055529) scale(0.1 -0.1)">
       <defs>
        <path id="DejaVuSans-34" d="M 2419 4116 
L 825 1625 
L 2419 1625 
L 2419 4116 
z
M 2253 4666 
L 3047 4666 
L 3047 1625 
L 3713 1625 
L 3713 1100 
L 3047 1100 
L 3047 0 
L 2419 0 
L 2419 1100 
L 313 1100 
L 313 1709 
L 2253 4666 
z
" transform="scale(0.015625)"/>
       </defs>
       <use xlink:href="#DejaVuSans-30"/>
       <use xlink:href="#DejaVuSans-2e" transform="translate(63.623047 0)"/>
       <use xlink:href="#DejaVuSans-34" transform="translate(95.410156 0)"/>
       <use xlink:href="#DejaVuSans-30" transform="translate(159.033203 0)"/>
      </g>
     </g>
    </g>
    <g id="ytick_5">
     <g id="line2d_13">
      <path d="M 52.079375 80.472202 
L 175.59761 80.472202 
" clip-path="url(#pe580b920b7)" style="fill: none; stroke-dasharray: 2.96,1.28; stroke-dashoffset: 0; stroke: #b0b0b0; stroke-opacity: 0.7; stroke-width: 0.8"/>
     </g>
     <g id="line2d_14">
      <g>
       <use xlink:href="#m10153a1bd7" x="52.079375" y="80.472202" style="stroke: #000000; stroke-width: 0.8"/>
      </g>
     </g>
     <g id="text_8">
      <!-- 0.45 -->
      <g transform="translate(22.81375 84.271421) scale(0.1 -0.1)">
       <use xlink:href="#DejaVuSans-30"/>
       <use xlink:href="#DejaVuSans-2e" transform="translate(63.623047 0)"/>
       <use xlink:href="#DejaVuSans-34" transform="translate(95.410156 0)"/>
       <use xlink:href="#DejaVuSans-35" transform="translate(159.033203 0)"/>
      </g>
     </g>
    </g>
    <g id="ytick_6">
     <g id="line2d_15">
      <path d="M 52.079375 58.688093 
L 175.59761 58.688093 
" clip-path="url(#pe580b920b7)" style="fill: none; stroke-dasharray: 2.96,1.28; stroke-dashoffset: 0; stroke: #b0b0b0; stroke-opacity: 0.7; stroke-width: 0.8"/>
     </g>
     <g id="line2d_16">
      <g>
       <use xlink:href="#m10153a1bd7" x="52.079375" y="58.688093" style="stroke: #000000; stroke-width: 0.8"/>
      </g>
     </g>
     <g id="text_9">
      <!-- 0.50 -->
      <g transform="translate(22.81375 62.487312) scale(0.1 -0.1)">
       <use xlink:href="#DejaVuSans-30"/>
       <use xlink:href="#DejaVuSans-2e" transform="translate(63.623047 0)"/>
       <use xlink:href="#DejaVuSans-35" transform="translate(95.410156 0)"/>
       <use xlink:href="#DejaVuSans-30" transform="translate(159.033203 0)"/>
      </g>
     </g>
    </g>
    <g id="ytick_7">
     <g id="line2d_17">
      <path d="M 52.079375 36.903984 
L 175.59761 36.903984 
" clip-path="url(#pe580b920b7)" style="fill: none; stroke-dasharray: 2.96,1.28; stroke-dashoffset: 0; stroke: #b0b0b0; stroke-opacity: 0.7; stroke-width: 0.8"/>
     </g>
     <g id="line2d_18">
      <g>
       <use xlink:href="#m10153a1bd7" x="52.079375" y="36.903984" style="stroke: #000000; stroke-width: 0.8"/>
      </g>
     </g>
     <g id="text_10">
      <!-- 0.55 -->
      <g transform="translate(22.81375 40.703203) scale(0.1 -0.1)">
       <use xlink:href="#DejaVuSans-30"/>
       <use xlink:href="#DejaVuSans-2e" transform="translate(63.623047 0)"/>
       <use xlink:href="#DejaVuSans-35" transform="translate(95.410156 0)"/>
       <use xlink:href="#DejaVuSans-35" transform="translate(159.033203 0)"/>
      </g>
     </g>
    </g>
    <g id="text_11">
     <!-- Loss -->
     <g transform="translate(16.318125 111.345312) rotate(-90) scale(0.12 -0.12)">
      <defs>
       <path id="DejaVuSans-BoldOblique-4c" d="M 1044 4666 
L 2247 4666 
L 1516 909 
L 3622 909 
L 3450 0 
L 134 0 
L 1044 4666 
z
" transform="scale(0.015625)"/>
       <path id="DejaVuSans-BoldOblique-73" d="M 3584 3391 
L 3419 2522 
Q 3091 2678 2766 2759 
Q 2441 2841 2150 2841 
Q 1819 2841 1639 2755 
Q 1459 2669 1459 2509 
Q 1459 2416 1559 2359 
Q 1659 2303 1953 2241 
L 2156 2203 
Q 2834 2059 3106 1832 
Q 3378 1606 3378 1203 
Q 3378 594 2900 251 
Q 2422 -91 1563 -91 
Q 1203 -91 828 -34 
Q 453 22 63 134 
L 231 1013 
Q 534 834 879 743 
Q 1225 653 1588 653 
Q 1941 653 2119 737 
Q 2297 822 2297 984 
Q 2297 1097 2197 1159 
Q 2097 1222 1784 1288 
L 1581 1325 
Q 981 1450 725 1694 
Q 469 1938 469 2369 
Q 469 2953 911 3268 
Q 1353 3584 2175 3584 
Q 2534 3584 2882 3536 
Q 3231 3488 3584 3391 
z
" transform="scale(0.015625)"/>
      </defs>
      <use xlink:href="#DejaVuSans-BoldOblique-4c"/>
      <use xlink:href="#DejaVuSans-BoldOblique-6f" transform="translate(63.720703 0)"/>
      <use xlink:href="#DejaVuSans-BoldOblique-73" transform="translate(132.421875 0)"/>
      <use xlink:href="#DejaVuSans-BoldOblique-73" transform="translate(191.943359 0)"/>
     </g>
    </g>
   </g>
   <g id="line2d_19">
    <path d="M 57.69384 29.039943 
L 63.603804 112.005364 
L 69.513767 121.648004 
L 75.42373 127.705376 
L 81.333694 132.409816 
L 87.243657 136.434429 
L 93.153621 139.433852 
L 99.063584 142.401924 
L 104.973548 145.121758 
L 110.883511 147.199132 
L 116.793474 149.417169 
L 122.703438 150.060356 
L 128.613401 152.521984 
L 134.523365 153.508463 
L 140.433328 154.374326 
L 146.343291 156.241912 
L 152.253255 159.63975 
L 158.163218 162.023593 
L 164.073182 162.65859 
L 169.983145 163.476307 
" clip-path="url(#pe580b920b7)" style="fill: none; stroke: #696969; stroke-width: 1.5; stroke-linecap: square"/>
   </g>
   <g id="patch_3">
    <path d="M 52.079375 170.198125 
L 52.079375 22.318125 
" style="fill: none; stroke: #000000; stroke-width: 0.8; stroke-linejoin: miter; stroke-linecap: square"/>
   </g>
   <g id="patch_4">
    <path d="M 175.59761 170.198125 
L 175.59761 22.318125 
" style="fill: none; stroke: #000000; stroke-width: 0.8; stroke-linejoin: miter; stroke-linecap: square"/>
   </g>
   <g id="patch_5">
    <path d="M 52.079375 170.198125 
L 175.59761 170.198125 
" style="fill: none; stroke: #000000; stroke-width: 0.8; stroke-linejoin: miter; stroke-linecap: square"/>
   </g>
   <g id="patch_6">
    <path d="M 52.079375 22.318125 
L 175.59761 22.318125 
" style="fill: none; stroke: #000000; stroke-width: 0.8; stroke-linejoin: miter; stroke-linecap: square"/>
   </g>
   <g id="text_12">
    <!-- Training Loss -->
    <g transform="translate(69.27068 16.318125) scale(0.12 -0.12)">
     <defs>
      <path id="DejaVuSans-BoldOblique-54" d="M 488 4666 
L 4788 4666 
L 4609 3756 
L 3059 3756 
L 2328 0 
L 1125 0 
L 1856 3756 
L 306 3756 
L 488 4666 
z
" transform="scale(0.015625)"/>
      <path id="DejaVuSans-BoldOblique-72" d="M 3291 2547 
Q 3175 2613 3034 2647 
Q 2894 2681 2731 2681 
Q 2303 2681 2020 2406 
Q 1738 2131 1638 1613 
L 1319 0 
L 197 0 
L 878 3500 
L 2003 3500 
L 1881 2900 
Q 2103 3231 2436 3407 
Q 2769 3584 3175 3584 
Q 3234 3584 3309 3578 
Q 3384 3572 3488 3559 
L 3291 2547 
z
" transform="scale(0.015625)"/>
      <path id="DejaVuSans-BoldOblique-61" d="M 2106 1575 
Q 1688 1575 1473 1445 
Q 1259 1316 1259 1063 
Q 1259 872 1386 762 
Q 1513 653 1734 653 
Q 2078 653 2309 861 
Q 2541 1069 2619 1447 
L 2644 1575 
L 2106 1575 
z
M 3853 1997 
L 3463 0 
L 2344 0 
L 2438 519 
Q 2163 206 1856 57 
Q 1550 -91 1191 -91 
Q 694 -91 401 167 
Q 109 425 109 863 
Q 109 1531 626 1886 
Q 1144 2241 2119 2241 
L 2778 2241 
L 2791 2328 
Q 2800 2372 2801 2390 
Q 2803 2409 2803 2425 
Q 2803 2631 2608 2736 
Q 2413 2841 2028 2841 
Q 1681 2841 1356 2769 
Q 1031 2697 728 2553 
L 897 3406 
Q 1247 3494 1614 3539 
Q 1981 3584 2375 3584 
Q 3153 3584 3531 3317 
Q 3909 3050 3909 2503 
Q 3909 2397 3895 2270 
Q 3881 2144 3853 1997 
z
" transform="scale(0.015625)"/>
      <path id="DejaVuSans-BoldOblique-69" d="M 878 3500 
L 2003 3500 
L 1319 0 
L 197 0 
L 878 3500 
z
M 1141 4863 
L 2266 4863 
L 2088 3950 
L 959 3950 
L 1141 4863 
z
" transform="scale(0.015625)"/>
      <path id="DejaVuSans-BoldOblique-6e" d="M 4128 2131 
L 3713 0 
L 2591 0 
L 2944 1825 
Q 2981 2003 3001 2126 
Q 3022 2250 3022 2322 
Q 3022 2522 2911 2631 
Q 2800 2741 2597 2741 
Q 2250 2741 2001 2470 
Q 1753 2200 1656 1722 
L 1319 0 
L 197 0 
L 878 3500 
L 2003 3500 
L 1900 2988 
Q 2209 3291 2521 3437 
Q 2834 3584 3175 3584 
Q 3659 3584 3921 3331 
Q 4184 3078 4184 2619 
Q 4184 2519 4170 2397 
Q 4156 2275 4128 2131 
z
" transform="scale(0.015625)"/>
      <path id="DejaVuSans-BoldOblique-67" d="M 2675 594 
Q 2406 288 2128 144 
Q 1850 0 1522 0 
Q 928 0 583 383 
Q 238 766 238 1428 
Q 238 1781 358 2136 
Q 478 2491 703 2803 
Q 978 3181 1334 3379 
Q 1691 3578 2100 3578 
Q 2469 3578 2720 3434 
Q 2972 3291 3144 2981 
L 3238 3500 
L 4366 3500 
L 3775 459 
Q 3594 -481 3000 -931 
Q 2406 -1381 1350 -1381 
Q 1025 -1381 723 -1331 
Q 422 -1281 128 -1178 
L 294 -306 
Q 559 -475 825 -558 
Q 1091 -641 1369 -641 
Q 1925 -641 2223 -403 
Q 2522 -166 2625 353 
L 2675 594 
z
M 2363 2772 
Q 1950 2772 1676 2400 
Q 1403 2028 1403 1466 
Q 1403 1147 1550 980 
Q 1697 813 1978 813 
Q 2388 813 2663 1183 
Q 2938 1553 2938 2106 
Q 2938 2431 2791 2601 
Q 2644 2772 2363 2772 
z
" transform="scale(0.015625)"/>
      <path id="DejaVuSans-BoldOblique-20" transform="scale(0.015625)"/>
     </defs>
     <use xlink:href="#DejaVuSans-BoldOblique-54"/>
     <use xlink:href="#DejaVuSans-BoldOblique-72" transform="translate(57.212891 0)"/>
     <use xlink:href="#DejaVuSans-BoldOblique-61" transform="translate(106.529297 0)"/>
     <use xlink:href="#DejaVuSans-BoldOblique-69" transform="translate(174.009766 0)"/>
     <use xlink:href="#DejaVuSans-BoldOblique-6e" transform="translate(208.287109 0)"/>
     <use xlink:href="#DejaVuSans-BoldOblique-69" transform="translate(279.478516 0)"/>
     <use xlink:href="#DejaVuSans-BoldOblique-6e" transform="translate(313.755859 0)"/>
     <use xlink:href="#DejaVuSans-BoldOblique-67" transform="translate(384.947266 0)"/>
     <use xlink:href="#DejaVuSans-BoldOblique-20" transform="translate(456.529297 0)"/>
     <use xlink:href="#DejaVuSans-BoldOblique-4c" transform="translate(491.34375 0)"/>
     <use xlink:href="#DejaVuSans-BoldOblique-6f" transform="translate(555.064453 0)"/>
     <use xlink:href="#DejaVuSans-BoldOblique-73" transform="translate(623.765625 0)"/>
     <use xlink:href="#DejaVuSans-BoldOblique-73" transform="translate(683.287109 0)"/>
    </g>
   </g>
  </g>
  <g id="axes_2">
   <g id="patch_7">
    <path d="M 230.51761 170.198125 
L 354.035846 170.198125 
L 354.035846 22.318125 
L 230.51761 22.318125 
z
" style="fill: #ffffff"/>
   </g>
   <g id="matplotlib.axis_3">
    <g id="xtick_3">
     <g id="line2d_20">
      <path d="M 289.321746 170.198125 
L 289.321746 22.318125 
" clip-path="url(#pe1444708cc)" style="fill: none; stroke-dasharray: 2.96,1.28; stroke-dashoffset: 0; stroke: #b0b0b0; stroke-opacity: 0.7; stroke-width: 0.8"/>
     </g>
     <g id="line2d_21">
      <g>
       <use xlink:href="#m2483642367" x="289.321746" y="170.198125" style="stroke: #000000; stroke-width: 0.8"/>
      </g>
     </g>
     <g id="text_13">
      <!-- 10 -->
      <g transform="translate(282.959246 184.796562) scale(0.1 -0.1)">
       <use xlink:href="#DejaVuSans-31"/>
       <use xlink:href="#DejaVuSans-30" transform="translate(63.623047 0)"/>
      </g>
     </g>
    </g>
    <g id="xtick_4">
     <g id="line2d_22">
      <path d="M 348.42138 170.198125 
L 348.42138 22.318125 
" clip-path="url(#pe1444708cc)" style="fill: none; stroke-dasharray: 2.96,1.28; stroke-dashoffset: 0; stroke: #b0b0b0; stroke-opacity: 0.7; stroke-width: 0.8"/>
     </g>
     <g id="line2d_23">
      <g>
       <use xlink:href="#m2483642367" x="348.42138" y="170.198125" style="stroke: #000000; stroke-width: 0.8"/>
      </g>
     </g>
     <g id="text_14">
      <!-- 20 -->
      <g transform="translate(342.05888 184.796562) scale(0.1 -0.1)">
       <use xlink:href="#DejaVuSans-32"/>
       <use xlink:href="#DejaVuSans-30" transform="translate(63.623047 0)"/>
      </g>
     </g>
    </g>
    <g id="text_15">
     <!-- Epoch -->
     <g transform="translate(271.932978 199.994375) scale(0.12 -0.12)">
      <use xlink:href="#DejaVuSans-BoldOblique-45"/>
      <use xlink:href="#DejaVuSans-BoldOblique-70" transform="translate(68.310547 0)"/>
      <use xlink:href="#DejaVuSans-BoldOblique-6f" transform="translate(139.892578 0)"/>
      <use xlink:href="#DejaVuSans-BoldOblique-63" transform="translate(208.59375 0)"/>
      <use xlink:href="#DejaVuSans-BoldOblique-68" transform="translate(267.871094 0)"/>
     </g>
    </g>
   </g>
   <g id="matplotlib.axis_4">
    <g id="ytick_8">
     <g id="line2d_24">
      <path d="M 230.51761 167.905713 
L 354.035846 167.905713 
" clip-path="url(#pe1444708cc)" style="fill: none; stroke-dasharray: 2.96,1.28; stroke-dashoffset: 0; stroke: #b0b0b0; stroke-opacity: 0.7; stroke-width: 0.8"/>
     </g>
     <g id="line2d_25">
      <g>
       <use xlink:href="#m10153a1bd7" x="230.51761" y="167.905713" style="stroke: #000000; stroke-width: 0.8"/>
      </g>
     </g>
     <g id="text_16">
      <!-- 55 -->
      <g transform="translate(210.79261 171.704932) scale(0.1 -0.1)">
       <use xlink:href="#DejaVuSans-35"/>
       <use xlink:href="#DejaVuSans-35" transform="translate(63.623047 0)"/>
      </g>
     </g>
    </g>
    <g id="ytick_9">
     <g id="line2d_26">
      <path d="M 230.51761 135.034856 
L 354.035846 135.034856 
" clip-path="url(#pe1444708cc)" style="fill: none; stroke-dasharray: 2.96,1.28; stroke-dashoffset: 0; stroke: #b0b0b0; stroke-opacity: 0.7; stroke-width: 0.8"/>
     </g>
     <g id="line2d_27">
      <g>
       <use xlink:href="#m10153a1bd7" x="230.51761" y="135.034856" style="stroke: #000000; stroke-width: 0.8"/>
      </g>
     </g>
     <g id="text_17">
      <!-- 60 -->
      <g transform="translate(210.79261 138.834075) scale(0.1 -0.1)">
       <defs>
        <path id="DejaVuSans-36" d="M 2113 2584 
Q 1688 2584 1439 2293 
Q 1191 2003 1191 1497 
Q 1191 994 1439 701 
Q 1688 409 2113 409 
Q 2538 409 2786 701 
Q 3034 994 3034 1497 
Q 3034 2003 2786 2293 
Q 2538 2584 2113 2584 
z
M 3366 4563 
L 3366 3988 
Q 3128 4100 2886 4159 
Q 2644 4219 2406 4219 
Q 1781 4219 1451 3797 
Q 1122 3375 1075 2522 
Q 1259 2794 1537 2939 
Q 1816 3084 2150 3084 
Q 2853 3084 3261 2657 
Q 3669 2231 3669 1497 
Q 3669 778 3244 343 
Q 2819 -91 2113 -91 
Q 1303 -91 875 529 
Q 447 1150 447 2328 
Q 447 3434 972 4092 
Q 1497 4750 2381 4750 
Q 2619 4750 2861 4703 
Q 3103 4656 3366 4563 
z
" transform="scale(0.015625)"/>
       </defs>
       <use xlink:href="#DejaVuSans-36"/>
       <use xlink:href="#DejaVuSans-30" transform="translate(63.623047 0)"/>
      </g>
     </g>
    </g>
    <g id="ytick_10">
     <g id="line2d_28">
      <path d="M 230.51761 102.164 
L 354.035846 102.164 
" clip-path="url(#pe1444708cc)" style="fill: none; stroke-dasharray: 2.96,1.28; stroke-dashoffset: 0; stroke: #b0b0b0; stroke-opacity: 0.7; stroke-width: 0.8"/>
     </g>
     <g id="line2d_29">
      <g>
       <use xlink:href="#m10153a1bd7" x="230.51761" y="102.164" style="stroke: #000000; stroke-width: 0.8"/>
      </g>
     </g>
     <g id="text_18">
      <!-- 65 -->
      <g transform="translate(210.79261 105.963219) scale(0.1 -0.1)">
       <use xlink:href="#DejaVuSans-36"/>
       <use xlink:href="#DejaVuSans-35" transform="translate(63.623047 0)"/>
      </g>
     </g>
    </g>
    <g id="ytick_11">
     <g id="line2d_30">
      <path d="M 230.51761 69.293143 
L 354.035846 69.293143 
" clip-path="url(#pe1444708cc)" style="fill: none; stroke-dasharray: 2.96,1.28; stroke-dashoffset: 0; stroke: #b0b0b0; stroke-opacity: 0.7; stroke-width: 0.8"/>
     </g>
     <g id="line2d_31">
      <g>
       <use xlink:href="#m10153a1bd7" x="230.51761" y="69.293143" style="stroke: #000000; stroke-width: 0.8"/>
      </g>
     </g>
     <g id="text_19">
      <!-- 70 -->
      <g transform="translate(210.79261 73.092362) scale(0.1 -0.1)">
       <defs>
        <path id="DejaVuSans-37" d="M 525 4666 
L 3525 4666 
L 3525 4397 
L 1831 0 
L 1172 0 
L 2766 4134 
L 525 4134 
L 525 4666 
z
" transform="scale(0.015625)"/>
       </defs>
       <use xlink:href="#DejaVuSans-37"/>
       <use xlink:href="#DejaVuSans-30" transform="translate(63.623047 0)"/>
      </g>
     </g>
    </g>
    <g id="ytick_12">
     <g id="line2d_32">
      <path d="M 230.51761 36.422287 
L 354.035846 36.422287 
" clip-path="url(#pe1444708cc)" style="fill: none; stroke-dasharray: 2.96,1.28; stroke-dashoffset: 0; stroke: #b0b0b0; stroke-opacity: 0.7; stroke-width: 0.8"/>
     </g>
     <g id="line2d_33">
      <g>
       <use xlink:href="#m10153a1bd7" x="230.51761" y="36.422287" style="stroke: #000000; stroke-width: 0.8"/>
      </g>
     </g>
     <g id="text_20">
      <!-- 75 -->
      <g transform="translate(210.79261 40.221506) scale(0.1 -0.1)">
       <use xlink:href="#DejaVuSans-37"/>
       <use xlink:href="#DejaVuSans-35" transform="translate(63.623047 0)"/>
      </g>
     </g>
    </g>
    <g id="text_21">
     <!-- Accuracy (%) -->
     <g transform="translate(204.203235 140.160312) rotate(-90) scale(0.12 -0.12)">
      <defs>
       <path id="DejaVuSans-BoldOblique-41" d="M 3144 850 
L 1281 850 
L 819 0 
L -416 0 
L 2222 4666 
L 3597 4666 
L 4422 0 
L 3278 0 
L 3144 850 
z
M 1734 1697 
L 2988 1697 
L 2706 3494 
L 1734 1697 
z
" transform="scale(0.015625)"/>
       <path id="DejaVuSans-BoldOblique-75" d="M 434 1363 
L 844 3500 
L 1966 3500 
L 1613 1678 
Q 1575 1500 1556 1375 
Q 1538 1250 1538 1178 
Q 1538 981 1647 872 
Q 1756 763 1959 763 
Q 2306 763 2556 1031 
Q 2806 1300 2900 1778 
L 3238 3500 
L 4359 3500 
L 3681 0 
L 2553 0 
L 2656 513 
Q 2369 209 2053 59 
Q 1738 -91 1388 -91 
Q 909 -91 646 162 
Q 384 416 384 878 
Q 384 988 396 1109 
Q 409 1231 434 1363 
z
" transform="scale(0.015625)"/>
       <path id="DejaVuSans-BoldOblique-79" d="M 422 3500 
L 1478 3500 
L 1959 1075 
L 3200 3500 
L 4397 3500 
L 2181 -331 
Q 1809 -978 1493 -1179 
Q 1178 -1381 678 -1381 
L 0 -1381 
L 116 -647 
L 469 -647 
Q 744 -647 895 -555 
Q 1047 -463 1166 -231 
L 1269 -44 
L 422 3500 
z
" transform="scale(0.015625)"/>
       <path id="DejaVuSans-BoldOblique-28" d="M 1888 -844 
L 978 -844 
Q 734 -325 614 173 
Q 494 672 494 1166 
Q 494 2088 891 3008 
Q 1288 3928 2088 4856 
L 2994 4856 
Q 2266 3888 1908 2939 
Q 1550 1991 1550 1038 
Q 1550 569 1634 101 
Q 1719 -366 1888 -844 
z
" transform="scale(0.015625)"/>
       <path id="DejaVuSans-BoldOblique-25" d="M 4891 1925 
Q 4622 1925 4448 1662 
Q 4275 1400 4275 984 
Q 4275 713 4370 577 
Q 4466 441 4659 441 
Q 4931 441 5103 703 
Q 5275 966 5275 1388 
Q 5275 1653 5176 1789 
Q 5078 1925 4891 1925 
z
M 4978 2450 
Q 5469 2450 5764 2183 
Q 6059 1916 6059 1478 
Q 6059 778 5645 343 
Q 5231 -91 4563 -91 
Q 4072 -91 3776 179 
Q 3481 450 3481 891 
Q 3481 1584 3895 2017 
Q 4309 2450 4978 2450 
z
M 1663 -91 
L 897 -91 
L 4756 4750 
L 5522 4750 
L 1663 -91 
z
M 1856 4750 
Q 2344 4750 2641 4481 
Q 2938 4213 2938 3775 
Q 2938 3078 2520 2643 
Q 2103 2209 1434 2209 
Q 944 2209 648 2475 
Q 353 2741 353 3181 
Q 353 3875 770 4312 
Q 1188 4750 1856 4750 
z
M 1759 4225 
Q 1491 4225 1319 3961 
Q 1147 3697 1147 3284 
Q 1147 3009 1242 2870 
Q 1338 2731 1528 2731 
Q 1800 2731 1972 2997 
Q 2144 3263 2144 3688 
Q 2144 3950 2045 4087 
Q 1947 4225 1759 4225 
z
" transform="scale(0.015625)"/>
       <path id="DejaVuSans-BoldOblique-29" d="M 934 4856 
L 1850 4856 
Q 2091 4344 2209 3845 
Q 2328 3347 2328 2847 
Q 2328 1916 1933 995 
Q 1538 75 744 -844 
L -172 -844 
Q 556 125 915 1075 
Q 1275 2025 1275 2981 
Q 1275 3450 1190 3914 
Q 1106 4378 934 4856 
z
" transform="scale(0.015625)"/>
      </defs>
      <use xlink:href="#DejaVuSans-BoldOblique-41"/>
      <use xlink:href="#DejaVuSans-BoldOblique-63" transform="translate(74.267578 0)"/>
      <use xlink:href="#DejaVuSans-BoldOblique-63" transform="translate(133.544922 0)"/>
      <use xlink:href="#DejaVuSans-BoldOblique-75" transform="translate(192.822266 0)"/>
      <use xlink:href="#DejaVuSans-BoldOblique-72" transform="translate(264.013672 0)"/>
      <use xlink:href="#DejaVuSans-BoldOblique-61" transform="translate(313.330078 0)"/>
      <use xlink:href="#DejaVuSans-BoldOblique-63" transform="translate(380.810547 0)"/>
      <use xlink:href="#DejaVuSans-BoldOblique-79" transform="translate(440.087891 0)"/>
      <use xlink:href="#DejaVuSans-BoldOblique-20" transform="translate(505.273438 0)"/>
      <use xlink:href="#DejaVuSans-BoldOblique-28" transform="translate(540.087891 0)"/>
      <use xlink:href="#DejaVuSans-BoldOblique-25" transform="translate(585.791016 0)"/>
      <use xlink:href="#DejaVuSans-BoldOblique-29" transform="translate(685.986328 0)"/>
     </g>
    </g>
   </g>
   <g id="line2d_34">
    <path d="M 236.132076 163.476307 
L 242.042039 138.220921 
L 247.952002 132.392755 
L 253.861966 102.86338 
L 259.771929 79.93926 
L 265.681893 77.219449 
L 271.591856 76.830905 
L 277.501819 64.786028 
L 283.411783 74.499638 
L 289.321746 61.289129 
L 295.23171 49.632797 
L 301.141673 54.295329 
L 307.051636 54.295329 
L 312.9616 44.970264 
L 318.871563 56.238051 
L 324.781527 39.530642 
L 330.69149 42.638997 
L 336.601454 32.148298 
L 342.511417 30.982665 
L 348.42138 29.039943 
" clip-path="url(#pe1444708cc)" style="fill: none; stroke: #daa520; stroke-width: 1.5; stroke-linecap: square"/>
   </g>
   <g id="patch_8">
    <path d="M 230.51761 170.198125 
L 230.51761 22.318125 
" style="fill: none; stroke: #000000; stroke-width: 0.8; stroke-linejoin: miter; stroke-linecap: square"/>
   </g>
   <g id="patch_9">
    <path d="M 354.035846 170.198125 
L 354.035846 22.318125 
" style="fill: none; stroke: #000000; stroke-width: 0.8; stroke-linejoin: miter; stroke-linecap: square"/>
   </g>
   <g id="patch_10">
    <path d="M 230.51761 170.198125 
L 354.035846 170.198125 
" style="fill: none; stroke: #000000; stroke-width: 0.8; stroke-linejoin: miter; stroke-linecap: square"/>
   </g>
   <g id="patch_11">
    <path d="M 230.51761 22.318125 
L 354.035846 22.318125 
" style="fill: none; stroke: #000000; stroke-width: 0.8; stroke-linejoin: miter; stroke-linecap: square"/>
   </g>
   <g id="text_22">
    <!-- Training Accuracy -->
    <g transform="translate(232.479228 16.318125) scale(0.12 -0.12)">
     <use xlink:href="#DejaVuSans-BoldOblique-54"/>
     <use xlink:href="#DejaVuSans-BoldOblique-72" transform="translate(57.212891 0)"/>
     <use xlink:href="#DejaVuSans-BoldOblique-61" transform="translate(106.529297 0)"/>
     <use xlink:href="#DejaVuSans-BoldOblique-69" transform="translate(174.009766 0)"/>
     <use xlink:href="#DejaVuSans-BoldOblique-6e" transform="translate(208.287109 0)"/>
     <use xlink:href="#DejaVuSans-BoldOblique-69" transform="translate(279.478516 0)"/>
     <use xlink:href="#DejaVuSans-BoldOblique-6e" transform="translate(313.755859 0)"/>
     <use xlink:href="#DejaVuSans-BoldOblique-67" transform="translate(384.947266 0)"/>
     <use xlink:href="#DejaVuSans-BoldOblique-20" transform="translate(456.529297 0)"/>
     <use xlink:href="#DejaVuSans-BoldOblique-41" transform="translate(491.34375 0)"/>
     <use xlink:href="#DejaVuSans-BoldOblique-63" transform="translate(565.611328 0)"/>
     <use xlink:href="#DejaVuSans-BoldOblique-63" transform="translate(624.888672 0)"/>
     <use xlink:href="#DejaVuSans-BoldOblique-75" transform="translate(684.166016 0)"/>
     <use xlink:href="#DejaVuSans-BoldOblique-72" transform="translate(755.357422 0)"/>
     <use xlink:href="#DejaVuSans-BoldOblique-61" transform="translate(804.673828 0)"/>
     <use xlink:href="#DejaVuSans-BoldOblique-63" transform="translate(872.154297 0)"/>
     <use xlink:href="#DejaVuSans-BoldOblique-79" transform="translate(931.431641 0)"/>
    </g>
   </g>
  </g>
  <g id="axes_3">
   <g id="patch_12">
    <path d="M 408.955846 170.198125 
L 532.474081 170.198125 
L 532.474081 22.318125 
L 408.955846 22.318125 
z
" style="fill: #ffffff"/>
   </g>
   <g id="matplotlib.axis_5">
    <g id="xtick_5">
     <g id="line2d_35">
      <path d="M 467.759982 170.198125 
L 467.759982 22.318125 
" clip-path="url(#pba0b77d90b)" style="fill: none; stroke-dasharray: 2.96,1.28; stroke-dashoffset: 0; stroke: #b0b0b0; stroke-opacity: 0.7; stroke-width: 0.8"/>
     </g>
     <g id="line2d_36">
      <g>
       <use xlink:href="#m2483642367" x="467.759982" y="170.198125" style="stroke: #000000; stroke-width: 0.8"/>
      </g>
     </g>
     <g id="text_23">
      <!-- 10 -->
      <g transform="translate(461.397482 184.796562) scale(0.1 -0.1)">
       <use xlink:href="#DejaVuSans-31"/>
       <use xlink:href="#DejaVuSans-30" transform="translate(63.623047 0)"/>
      </g>
     </g>
    </g>
    <g id="xtick_6">
     <g id="line2d_37">
      <path d="M 526.859616 170.198125 
L 526.859616 22.318125 
" clip-path="url(#pba0b77d90b)" style="fill: none; stroke-dasharray: 2.96,1.28; stroke-dashoffset: 0; stroke: #b0b0b0; stroke-opacity: 0.7; stroke-width: 0.8"/>
     </g>
     <g id="line2d_38">
      <g>
       <use xlink:href="#m2483642367" x="526.859616" y="170.198125" style="stroke: #000000; stroke-width: 0.8"/>
      </g>
     </g>
     <g id="text_24">
      <!-- 20 -->
      <g transform="translate(520.497116 184.796562) scale(0.1 -0.1)">
       <use xlink:href="#DejaVuSans-32"/>
       <use xlink:href="#DejaVuSans-30" transform="translate(63.623047 0)"/>
      </g>
     </g>
    </g>
    <g id="text_25">
     <!-- Epoch -->
     <g transform="translate(450.371213 199.994375) scale(0.12 -0.12)">
      <use xlink:href="#DejaVuSans-BoldOblique-45"/>
      <use xlink:href="#DejaVuSans-BoldOblique-70" transform="translate(68.310547 0)"/>
      <use xlink:href="#DejaVuSans-BoldOblique-6f" transform="translate(139.892578 0)"/>
      <use xlink:href="#DejaVuSans-BoldOblique-63" transform="translate(208.59375 0)"/>
      <use xlink:href="#DejaVuSans-BoldOblique-68" transform="translate(267.871094 0)"/>
     </g>
    </g>
   </g>
   <g id="matplotlib.axis_6">
    <g id="ytick_13">
     <g id="line2d_39">
      <path d="M 408.955846 144.951375 
L 532.474081 144.951375 
" clip-path="url(#pba0b77d90b)" style="fill: none; stroke-dasharray: 2.96,1.28; stroke-dashoffset: 0; stroke: #b0b0b0; stroke-opacity: 0.7; stroke-width: 0.8"/>
     </g>
     <g id="line2d_40">
      <g>
       <use xlink:href="#m10153a1bd7" x="408.955846" y="144.951375" style="stroke: #000000; stroke-width: 0.8"/>
      </g>
     </g>
     <g id="text_26">
      <!-- 0.64 -->
      <g transform="translate(379.690221 148.750594) scale(0.1 -0.1)">
       <use xlink:href="#DejaVuSans-30"/>
       <use xlink:href="#DejaVuSans-2e" transform="translate(63.623047 0)"/>
       <use xlink:href="#DejaVuSans-36" transform="translate(95.410156 0)"/>
       <use xlink:href="#DejaVuSans-34" transform="translate(159.033203 0)"/>
      </g>
     </g>
    </g>
    <g id="ytick_14">
     <g id="line2d_41">
      <path d="M 408.955846 113.256374 
L 532.474081 113.256374 
" clip-path="url(#pba0b77d90b)" style="fill: none; stroke-dasharray: 2.96,1.28; stroke-dashoffset: 0; stroke: #b0b0b0; stroke-opacity: 0.7; stroke-width: 0.8"/>
     </g>
     <g id="line2d_42">
      <g>
       <use xlink:href="#m10153a1bd7" x="408.955846" y="113.256374" style="stroke: #000000; stroke-width: 0.8"/>
      </g>
     </g>
     <g id="text_27">
      <!-- 0.66 -->
      <g transform="translate(379.690221 117.055593) scale(0.1 -0.1)">
       <use xlink:href="#DejaVuSans-30"/>
       <use xlink:href="#DejaVuSans-2e" transform="translate(63.623047 0)"/>
       <use xlink:href="#DejaVuSans-36" transform="translate(95.410156 0)"/>
       <use xlink:href="#DejaVuSans-36" transform="translate(159.033203 0)"/>
      </g>
     </g>
    </g>
    <g id="ytick_15">
     <g id="line2d_43">
      <path d="M 408.955846 81.561373 
L 532.474081 81.561373 
" clip-path="url(#pba0b77d90b)" style="fill: none; stroke-dasharray: 2.96,1.28; stroke-dashoffset: 0; stroke: #b0b0b0; stroke-opacity: 0.7; stroke-width: 0.8"/>
     </g>
     <g id="line2d_44">
      <g>
       <use xlink:href="#m10153a1bd7" x="408.955846" y="81.561373" style="stroke: #000000; stroke-width: 0.8"/>
      </g>
     </g>
     <g id="text_28">
      <!-- 0.68 -->
      <g transform="translate(379.690221 85.360592) scale(0.1 -0.1)">
       <defs>
        <path id="DejaVuSans-38" d="M 2034 2216 
Q 1584 2216 1326 1975 
Q 1069 1734 1069 1313 
Q 1069 891 1326 650 
Q 1584 409 2034 409 
Q 2484 409 2743 651 
Q 3003 894 3003 1313 
Q 3003 1734 2745 1975 
Q 2488 2216 2034 2216 
z
M 1403 2484 
Q 997 2584 770 2862 
Q 544 3141 544 3541 
Q 544 4100 942 4425 
Q 1341 4750 2034 4750 
Q 2731 4750 3128 4425 
Q 3525 4100 3525 3541 
Q 3525 3141 3298 2862 
Q 3072 2584 2669 2484 
Q 3125 2378 3379 2068 
Q 3634 1759 3634 1313 
Q 3634 634 3220 271 
Q 2806 -91 2034 -91 
Q 1263 -91 848 271 
Q 434 634 434 1313 
Q 434 1759 690 2068 
Q 947 2378 1403 2484 
z
M 1172 3481 
Q 1172 3119 1398 2916 
Q 1625 2713 2034 2713 
Q 2441 2713 2670 2916 
Q 2900 3119 2900 3481 
Q 2900 3844 2670 4047 
Q 2441 4250 2034 4250 
Q 1625 4250 1398 4047 
Q 1172 3844 1172 3481 
z
" transform="scale(0.015625)"/>
       </defs>
       <use xlink:href="#DejaVuSans-30"/>
       <use xlink:href="#DejaVuSans-2e" transform="translate(63.623047 0)"/>
       <use xlink:href="#DejaVuSans-36" transform="translate(95.410156 0)"/>
       <use xlink:href="#DejaVuSans-38" transform="translate(159.033203 0)"/>
      </g>
     </g>
    </g>
    <g id="ytick_16">
     <g id="line2d_45">
      <path d="M 408.955846 49.866372 
L 532.474081 49.866372 
" clip-path="url(#pba0b77d90b)" style="fill: none; stroke-dasharray: 2.96,1.28; stroke-dashoffset: 0; stroke: #b0b0b0; stroke-opacity: 0.7; stroke-width: 0.8"/>
     </g>
     <g id="line2d_46">
      <g>
       <use xlink:href="#m10153a1bd7" x="408.955846" y="49.866372" style="stroke: #000000; stroke-width: 0.8"/>
      </g>
     </g>
     <g id="text_29">
      <!-- 0.70 -->
      <g transform="translate(379.690221 53.665591) scale(0.1 -0.1)">
       <use xlink:href="#DejaVuSans-30"/>
       <use xlink:href="#DejaVuSans-2e" transform="translate(63.623047 0)"/>
       <use xlink:href="#DejaVuSans-37" transform="translate(95.410156 0)"/>
       <use xlink:href="#DejaVuSans-30" transform="translate(159.033203 0)"/>
      </g>
     </g>
    </g>
    <g id="text_30">
     <!-- Validation BACC -->
     <g transform="translate(373.194596 150.185937) rotate(-90) scale(0.12 -0.12)">
      <defs>
       <path id="DejaVuSans-BoldOblique-56" d="M 488 4666 
L 1631 4666 
L 2203 1178 
L 4134 4666 
L 5375 4666 
L 2741 0 
L 1306 0 
L 488 4666 
z
" transform="scale(0.015625)"/>
       <path id="DejaVuSans-BoldOblique-6c" d="M 1141 4863 
L 2266 4863 
L 1319 0 
L 197 0 
L 1141 4863 
z
" transform="scale(0.015625)"/>
       <path id="DejaVuSans-BoldOblique-64" d="M 1966 722 
Q 2397 722 2667 1119 
Q 2938 1516 2938 2156 
Q 2938 2447 2786 2609 
Q 2634 2772 2363 2772 
Q 1938 2772 1663 2380 
Q 1388 1988 1388 1375 
Q 1388 1056 1536 889 
Q 1684 722 1966 722 
z
M 3144 2988 
L 3506 4863 
L 4634 4863 
L 3688 0 
L 2559 0 
L 2663 506 
Q 2406 200 2125 54 
Q 1844 -91 1509 -91 
Q 919 -91 575 284 
Q 231 659 231 1306 
Q 231 1709 351 2090 
Q 472 2472 697 2784 
Q 981 3178 1339 3381 
Q 1697 3584 2106 3584 
Q 2466 3584 2717 3439 
Q 2969 3294 3144 2988 
z
" transform="scale(0.015625)"/>
       <path id="DejaVuSans-BoldOblique-74" d="M 2303 4494 
L 2113 3500 
L 3256 3500 
L 3097 2700 
L 1953 2700 
L 1666 1219 
Q 1653 1169 1648 1134 
Q 1644 1100 1644 1069 
Q 1644 925 1739 862 
Q 1834 800 2059 800 
L 2638 800 
L 2478 0 
L 1538 0 
Q 1031 0 765 212 
Q 500 425 500 825 
Q 500 913 509 1013 
Q 519 1113 538 1216 
L 825 2700 
L 275 2700 
L 428 3500 
L 984 3500 
L 1178 4494 
L 2303 4494 
z
" transform="scale(0.015625)"/>
       <path id="DejaVuSans-BoldOblique-42" d="M 2559 2859 
Q 2881 2859 3062 3021 
Q 3244 3184 3244 3469 
Q 3244 3653 3117 3750 
Q 2991 3847 2753 3847 
L 2081 3847 
L 1888 2859 
L 2559 2859 
z
M 2203 819 
Q 2616 819 2837 1016 
Q 3059 1213 3059 1581 
Q 3059 1816 2906 1928 
Q 2753 2041 2438 2041 
L 1728 2041 
L 1491 819 
L 2203 819 
z
M 3628 2497 
Q 3934 2409 4101 2176 
Q 4269 1944 4269 1600 
Q 4269 847 3708 423 
Q 3147 0 2131 0 
L 134 0 
L 1044 4666 
L 2847 4666 
Q 3678 4666 4076 4422 
Q 4475 4178 4475 3669 
Q 4475 3241 4240 2917 
Q 4006 2594 3628 2497 
z
" transform="scale(0.015625)"/>
       <path id="DejaVuSans-BoldOblique-43" d="M 3878 219 
Q 3447 66 3050 -12 
Q 2653 -91 2297 -91 
Q 1356 -91 793 425 
Q 231 941 231 1791 
Q 231 2350 409 2845 
Q 588 3341 934 3750 
Q 1344 4231 1920 4490 
Q 2497 4750 3163 4750 
Q 3525 4750 3890 4664 
Q 4256 4578 4634 4403 
L 4441 3438 
Q 4141 3666 3837 3772 
Q 3534 3878 3188 3878 
Q 2466 3878 1978 3322 
Q 1491 2766 1491 1931 
Q 1491 1394 1791 1087 
Q 2091 781 2619 781 
Q 2934 781 3289 895 
Q 3644 1009 4084 1253 
L 3878 219 
z
" transform="scale(0.015625)"/>
      </defs>
      <use xlink:href="#DejaVuSans-BoldOblique-56"/>
      <use xlink:href="#DejaVuSans-BoldOblique-61" transform="translate(69.642578 0)"/>
      <use xlink:href="#DejaVuSans-BoldOblique-6c" transform="translate(137.123047 0)"/>
      <use xlink:href="#DejaVuSans-BoldOblique-69" transform="translate(171.400391 0)"/>
      <use xlink:href="#DejaVuSans-BoldOblique-64" transform="translate(205.677734 0)"/>
      <use xlink:href="#DejaVuSans-BoldOblique-61" transform="translate(277.259766 0)"/>
      <use xlink:href="#DejaVuSans-BoldOblique-74" transform="translate(344.740234 0)"/>
      <use xlink:href="#DejaVuSans-BoldOblique-69" transform="translate(392.542969 0)"/>
      <use xlink:href="#DejaVuSans-BoldOblique-6f" transform="translate(426.820312 0)"/>
      <use xlink:href="#DejaVuSans-BoldOblique-6e" transform="translate(495.521484 0)"/>
      <use xlink:href="#DejaVuSans-BoldOblique-20" transform="translate(566.712891 0)"/>
      <use xlink:href="#DejaVuSans-BoldOblique-42" transform="translate(601.527344 0)"/>
      <use xlink:href="#DejaVuSans-BoldOblique-41" transform="translate(677.748047 0)"/>
      <use xlink:href="#DejaVuSans-BoldOblique-43" transform="translate(752.015625 0)"/>
      <use xlink:href="#DejaVuSans-BoldOblique-43" transform="translate(825.404297 0)"/>
     </g>
    </g>
   </g>
   <g id="line2d_47">
    <path d="M 414.570311 163.476307 
L 420.480274 109.627633 
L 426.390238 79.041022 
L 432.300201 78.299742 
L 438.210164 95.89631 
L 444.120128 87.177449 
L 450.030091 45.401045 
L 455.940055 49.513382 
L 461.850018 120.482086 
L 467.759982 29.039943 
L 473.669945 59.132368 
L 479.579908 47.536636 
L 485.489872 70.7281 
L 491.399835 81.494305 
L 497.309799 82.729771 
L 503.219762 77.31137 
L 509.129725 66.121576 
L 515.039689 67.851229 
L 520.949652 97.537715 
L 526.859616 71.628225 
" clip-path="url(#pba0b77d90b)" style="fill: none; stroke: #4169e1; stroke-width: 1.5; stroke-linecap: square"/>
   </g>
   <g id="line2d_48">
    <path d="M 408.955846 29.039943 
L 532.474081 29.039943 
" clip-path="url(#pba0b77d90b)" style="fill: none; stroke-dasharray: 5.55,2.4; stroke-dashoffset: 0; stroke: #ffa500; stroke-width: 1.5"/>
   </g>
   <g id="patch_13">
    <path d="M 408.955846 170.198125 
L 408.955846 22.318125 
" style="fill: none; stroke: #000000; stroke-width: 0.8; stroke-linejoin: miter; stroke-linecap: square"/>
   </g>
   <g id="patch_14">
    <path d="M 532.474081 170.198125 
L 532.474081 22.318125 
" style="fill: none; stroke: #000000; stroke-width: 0.8; stroke-linejoin: miter; stroke-linecap: square"/>
   </g>
   <g id="patch_15">
    <path d="M 408.955846 170.198125 
L 532.474081 170.198125 
" style="fill: none; stroke: #000000; stroke-width: 0.8; stroke-linejoin: miter; stroke-linecap: square"/>
   </g>
   <g id="patch_16">
    <path d="M 408.955846 22.318125 
L 532.474081 22.318125 
" style="fill: none; stroke: #000000; stroke-width: 0.8; stroke-linejoin: miter; stroke-linecap: square"/>
   </g>
   <g id="text_31">
    <!-- Validation BACC -->
    <g transform="translate(416.787151 16.318125) scale(0.12 -0.12)">
     <use xlink:href="#DejaVuSans-BoldOblique-56"/>
     <use xlink:href="#DejaVuSans-BoldOblique-61" transform="translate(69.642578 0)"/>
     <use xlink:href="#DejaVuSans-BoldOblique-6c" transform="translate(137.123047 0)"/>
     <use xlink:href="#DejaVuSans-BoldOblique-69" transform="translate(171.400391 0)"/>
     <use xlink:href="#DejaVuSans-BoldOblique-64" transform="translate(205.677734 0)"/>
     <use xlink:href="#DejaVuSans-BoldOblique-61" transform="translate(277.259766 0)"/>
     <use xlink:href="#DejaVuSans-BoldOblique-74" transform="translate(344.740234 0)"/>
     <use xlink:href="#DejaVuSans-BoldOblique-69" transform="translate(392.542969 0)"/>
     <use xlink:href="#DejaVuSans-BoldOblique-6f" transform="translate(426.820312 0)"/>
     <use xlink:href="#DejaVuSans-BoldOblique-6e" transform="translate(495.521484 0)"/>
     <use xlink:href="#DejaVuSans-BoldOblique-20" transform="translate(566.712891 0)"/>
     <use xlink:href="#DejaVuSans-BoldOblique-42" transform="translate(601.527344 0)"/>
     <use xlink:href="#DejaVuSans-BoldOblique-41" transform="translate(677.748047 0)"/>
     <use xlink:href="#DejaVuSans-BoldOblique-43" transform="translate(752.015625 0)"/>
     <use xlink:href="#DejaVuSans-BoldOblique-43" transform="translate(825.404297 0)"/>
    </g>
   </g>
   <g id="legend_1">
    <g id="patch_17">
     <path d="M 544.949993 42.728437 
L 631.063118 42.728437 
Q 632.863118 42.728437 632.863118 40.928437 
L 632.863118 28.618125 
Q 632.863118 26.818125 631.063118 26.818125 
L 544.949993 26.818125 
Q 543.149993 26.818125 543.149993 28.618125 
L 543.149993 40.928437 
Q 543.149993 42.728437 544.949993 42.728437 
z
" style="fill: #ffffff; opacity: 0.8; stroke: #cccccc; stroke-linejoin: miter"/>
    </g>
    <g id="line2d_49">
     <path d="M 546.749993 34.106719 
L 555.749993 34.106719 
L 564.749993 34.106719 
" style="fill: none; stroke-dasharray: 5.55,2.4; stroke-dashoffset: 0; stroke: #ffa500; stroke-width: 1.5"/>
    </g>
    <g id="text_32">
     <!-- Best: 0.7131 -->
     <g transform="translate(571.949993 37.256719) scale(0.09 -0.09)">
      <defs>
       <path id="DejaVuSans-42" d="M 1259 2228 
L 1259 519 
L 2272 519 
Q 2781 519 3026 730 
Q 3272 941 3272 1375 
Q 3272 1813 3026 2020 
Q 2781 2228 2272 2228 
L 1259 2228 
z
M 1259 4147 
L 1259 2741 
L 2194 2741 
Q 2656 2741 2882 2914 
Q 3109 3088 3109 3444 
Q 3109 3797 2882 3972 
Q 2656 4147 2194 4147 
L 1259 4147 
z
M 628 4666 
L 2241 4666 
Q 2963 4666 3353 4366 
Q 3744 4066 3744 3513 
Q 3744 3084 3544 2831 
Q 3344 2578 2956 2516 
Q 3422 2416 3680 2098 
Q 3938 1781 3938 1306 
Q 3938 681 3513 340 
Q 3088 0 2303 0 
L 628 0 
L 628 4666 
z
" transform="scale(0.015625)"/>
       <path id="DejaVuSans-65" d="M 3597 1894 
L 3597 1613 
L 953 1613 
Q 991 1019 1311 708 
Q 1631 397 2203 397 
Q 2534 397 2845 478 
Q 3156 559 3463 722 
L 3463 178 
Q 3153 47 2828 -22 
Q 2503 -91 2169 -91 
Q 1331 -91 842 396 
Q 353 884 353 1716 
Q 353 2575 817 3079 
Q 1281 3584 2069 3584 
Q 2775 3584 3186 3129 
Q 3597 2675 3597 1894 
z
M 3022 2063 
Q 3016 2534 2758 2815 
Q 2500 3097 2075 3097 
Q 1594 3097 1305 2825 
Q 1016 2553 972 2059 
L 3022 2063 
z
" transform="scale(0.015625)"/>
       <path id="DejaVuSans-73" d="M 2834 3397 
L 2834 2853 
Q 2591 2978 2328 3040 
Q 2066 3103 1784 3103 
Q 1356 3103 1142 2972 
Q 928 2841 928 2578 
Q 928 2378 1081 2264 
Q 1234 2150 1697 2047 
L 1894 2003 
Q 2506 1872 2764 1633 
Q 3022 1394 3022 966 
Q 3022 478 2636 193 
Q 2250 -91 1575 -91 
Q 1294 -91 989 -36 
Q 684 19 347 128 
L 347 722 
Q 666 556 975 473 
Q 1284 391 1588 391 
Q 1994 391 2212 530 
Q 2431 669 2431 922 
Q 2431 1156 2273 1281 
Q 2116 1406 1581 1522 
L 1381 1569 
Q 847 1681 609 1914 
Q 372 2147 372 2553 
Q 372 3047 722 3315 
Q 1072 3584 1716 3584 
Q 2034 3584 2315 3537 
Q 2597 3491 2834 3397 
z
" transform="scale(0.015625)"/>
       <path id="DejaVuSans-74" d="M 1172 4494 
L 1172 3500 
L 2356 3500 
L 2356 3053 
L 1172 3053 
L 1172 1153 
Q 1172 725 1289 603 
Q 1406 481 1766 481 
L 2356 481 
L 2356 0 
L 1766 0 
Q 1100 0 847 248 
Q 594 497 594 1153 
L 594 3053 
L 172 3053 
L 172 3500 
L 594 3500 
L 594 4494 
L 1172 4494 
z
" transform="scale(0.015625)"/>
       <path id="DejaVuSans-3a" d="M 750 794 
L 1409 794 
L 1409 0 
L 750 0 
L 750 794 
z
M 750 3309 
L 1409 3309 
L 1409 2516 
L 750 2516 
L 750 3309 
z
" transform="scale(0.015625)"/>
       <path id="DejaVuSans-20" transform="scale(0.015625)"/>
      </defs>
      <use xlink:href="#DejaVuSans-42"/>
      <use xlink:href="#DejaVuSans-65" transform="translate(68.603516 0)"/>
      <use xlink:href="#DejaVuSans-73" transform="translate(130.126953 0)"/>
      <use xlink:href="#DejaVuSans-74" transform="translate(182.226562 0)"/>
      <use xlink:href="#DejaVuSans-3a" transform="translate(221.435547 0)"/>
      <use xlink:href="#DejaVuSans-20" transform="translate(255.126953 0)"/>
      <use xlink:href="#DejaVuSans-30" transform="translate(286.914062 0)"/>
      <use xlink:href="#DejaVuSans-2e" transform="translate(350.537109 0)"/>
      <use xlink:href="#DejaVuSans-37" transform="translate(382.324219 0)"/>
      <use xlink:href="#DejaVuSans-31" transform="translate(445.947266 0)"/>
      <use xlink:href="#DejaVuSans-33" transform="translate(509.570312 0)"/>
      <use xlink:href="#DejaVuSans-31" transform="translate(573.193359 0)"/>
     </g>
    </g>
   </g>
  </g>
 </g>
 <defs>
  <clipPath id="pe580b920b7">
   <rect x="52.079375" y="22.318125" width="123.518235" height="147.88"/>
  </clipPath>
  <clipPath id="pe1444708cc">
   <rect x="230.51761" y="22.318125" width="123.518235" height="147.88"/>
  </clipPath>
  <clipPath id="pba0b77d90b">
   <rect x="408.955846" y="22.318125" width="123.518235" height="147.88"/>
  </clipPath>
 </defs>
</svg>
