<?xml version="1.0" encoding="utf-8" standalone="no"?>
<!DOCTYPE svg PUBLIC "-//W3C//DTD SVG 1.1//EN"
  "http://www.w3.org/Graphics/SVG/1.1/DTD/svg11.dtd">
<svg xmlns:xlink="http://www.w3.org/1999/xlink" width="422.095562pt" height="209.78375pt" viewBox="0 0 422.095562 209.78375" xmlns="http://www.w3.org/2000/svg" version="1.1">
 <metadata>
  <rdf:RDF xmlns:dc="http://purl.org/dc/elements/1.1/" xmlns:cc="http://creativecommons.org/ns#" xmlns:rdf="http://www.w3.org/1999/02/22-rdf-syntax-ns#">
   <cc:Work>
    <dc:type rdf:resource="http://purl.org/dc/dcmitype/StillImage"/>
    <dc:date>2025-12-10T10:25:14.404349</dc:date>
    <dc:format>image/svg+xml</dc:format>
    <dc:creator>
     <cc:Agent>
      <dc:title>Matplotlib v3.10.7, https://matplotlib.org/</dc:title>
     </cc:Agent>
    </dc:creator>
   </cc:Work>
  </rdf:RDF>
 </metadata>
 <defs>
  <style type="text/css">*{stroke-linejoin: round; stroke-linecap: butt}</style>
 </defs>
 <g id="figure_1">
  <g id="patch_1">
   <path d="M 0 209.78375 
L 422.095562 209.78375 
L 422.095562 0 
L 0 0 
z
" style="fill: #ffffff"/>
  </g>
  <g id="axes_1">
   <g id="patch_2">
    <path d="M 45.716875 170.198125 
L 312.096875 170.198125 
L 312.096875 22.318125 
L 45.716875 22.318125 
z
" style="fill: #ffffff"/>
   </g>
   <g id="matplotlib.axis_1">
    <g id="xtick_1">
     <g id="line2d_1">
      <path d="M 59.762366 170.198125 
L 59.762366 22.318125 
" clip-path="url(#p6d17975060)" style="fill: none; stroke-dasharray: 2.96,1.28; stroke-dashoffset: 0; stroke: #b0b0b0; stroke-opacity: 0.3; stroke-width: 0.8"/>
     </g>
     <g id="line2d_2">
      <defs>
       <path id="mfbbeef4bad" d="M 0 0 
L 0 3.5 
" style="stroke: #000000; stroke-width: 0.8"/>
      </defs>
      <g>
       <use xlink:href="#mfbbeef4bad" x="59.762366" y="170.198125" style="stroke: #000000; stroke-width: 0.8"/>
      </g>
     </g>
     <g id="text_1">
      <!-- 5 -->
      <g transform="translate(56.581116 184.796562) scale(0.1 -0.1)">
       <defs>
        <path id="DejaVuSans-35" d="M 691 4666 
L 3169 4666 
L 3169 4134 
L 1269 4134 
L 1269 2991 
Q 1406 3038 1543 3061 
Q 1681 3084 1819 3084 
Q 2600 3084 3056 2656 
Q 3513 2228 3513 1497 
Q 3513 744 3044 326 
Q 2575 -91 1722 -91 
Q 1428 -91 1123 -41 
Q 819 9 494 109 
L 494 744 
Q 775 591 1075 516 
Q 1375 441 1709 441 
Q 2250 441 2565 725 
Q 2881 1009 2881 1497 
Q 2881 1984 2565 2268 
Q 2250 2553 1709 2553 
Q 1456 2553 1204 2497 
Q 953 2441 691 2322 
L 691 4666 
z
" transform="scale(0.015625)"/>
       </defs>
       <use xlink:href="#DejaVuSans-35"/>
      </g>
     </g>
    </g>
    <g id="xtick_2">
     <g id="line2d_3">
      <path d="M 111.004191 170.198125 
L 111.004191 22.318125 
" clip-path="url(#p6d17975060)" style="fill: none; stroke-dasharray: 2.96,1.28; stroke-dashoffset: 0; stroke: #b0b0b0; stroke-opacity: 0.3; stroke-width: 0.8"/>
     </g>
     <g id="line2d_4">
      <g>
       <use xlink:href="#mfbbeef4bad" x="111.004191" y="170.198125" style="stroke: #000000; stroke-width: 0.8"/>
      </g>
     </g>
     <g id="text_2">
      <!-- 6 -->
      <g transform="translate(107.822941 184.796562) scale(0.1 -0.1)">
       <defs>
        <path id="DejaVuSans-36" d="M 2113 2584 
Q 1688 2584 1439 2293 
Q 1191 2003 1191 1497 
Q 1191 994 1439 701 
Q 1688 409 2113 409 
Q 2538 409 2786 701 
Q 3034 994 3034 1497 
Q 3034 2003 2786 2293 
Q 2538 2584 2113 2584 
z
M 3366 4563 
L 3366 3988 
Q 3128 4100 2886 4159 
Q 2644 4219 2406 4219 
Q 1781 4219 1451 3797 
Q 1122 3375 1075 2522 
Q 1259 2794 1537 2939 
Q 1816 3084 2150 3084 
Q 2853 3084 3261 2657 
Q 3669 2231 3669 1497 
Q 3669 778 3244 343 
Q 2819 -91 2113 -91 
Q 1303 -91 875 529 
Q 447 1150 447 2328 
Q 447 3434 972 4092 
Q 1497 4750 2381 4750 
Q 2619 4750 2861 4703 
Q 3103 4656 3366 4563 
z
" transform="scale(0.015625)"/>
       </defs>
       <use xlink:href="#DejaVuSans-36"/>
      </g>
     </g>
    </g>
    <g id="xtick_3">
     <g id="line2d_5">
      <path d="M 162.246017 170.198125 
L 162.246017 22.318125 
" clip-path="url(#p6d17975060)" style="fill: none; stroke-dasharray: 2.96,1.28; stroke-dashoffset: 0; stroke: #b0b0b0; stroke-opacity: 0.3; stroke-width: 0.8"/>
     </g>
     <g id="line2d_6">
      <g>
       <use xlink:href="#mfbbeef4bad" x="162.246017" y="170.198125" style="stroke: #000000; stroke-width: 0.8"/>
      </g>
     </g>
     <g id="text_3">
      <!-- 7 -->
      <g transform="translate(159.064767 184.796562) scale(0.1 -0.1)">
       <defs>
        <path id="DejaVuSans-37" d="M 525 4666 
L 3525 4666 
L 3525 4397 
L 1831 0 
L 1172 0 
L 2766 4134 
L 525 4134 
L 525 4666 
z
" transform="scale(0.015625)"/>
       </defs>
       <use xlink:href="#DejaVuSans-37"/>
      </g>
     </g>
    </g>
    <g id="xtick_4">
     <g id="line2d_7">
      <path d="M 213.487842 170.198125 
L 213.487842 22.318125 
" clip-path="url(#p6d17975060)" style="fill: none; stroke-dasharray: 2.96,1.28; stroke-dashoffset: 0; stroke: #b0b0b0; stroke-opacity: 0.3; stroke-width: 0.8"/>
     </g>
     <g id="line2d_8">
      <g>
       <use xlink:href="#mfbbeef4bad" x="213.487842" y="170.198125" style="stroke: #000000; stroke-width: 0.8"/>
      </g>
     </g>
     <g id="text_4">
      <!-- 8 -->
      <g transform="translate(210.306592 184.796562) scale(0.1 -0.1)">
       <defs>
        <path id="DejaVuSans-38" d="M 2034 2216 
Q 1584 2216 1326 1975 
Q 1069 1734 1069 1313 
Q 1069 891 1326 650 
Q 1584 409 2034 409 
Q 2484 409 2743 651 
Q 3003 894 3003 1313 
Q 3003 1734 2745 1975 
Q 2488 2216 2034 2216 
z
M 1403 2484 
Q 997 2584 770 2862 
Q 544 3141 544 3541 
Q 544 4100 942 4425 
Q 1341 4750 2034 4750 
Q 2731 4750 3128 4425 
Q 3525 4100 3525 3541 
Q 3525 3141 3298 2862 
Q 3072 2584 2669 2484 
Q 3125 2378 3379 2068 
Q 3634 1759 3634 1313 
Q 3634 634 3220 271 
Q 2806 -91 2034 -91 
Q 1263 -91 848 271 
Q 434 634 434 1313 
Q 434 1759 690 2068 
Q 947 2378 1403 2484 
z
M 1172 3481 
Q 1172 3119 1398 2916 
Q 1625 2713 2034 2713 
Q 2441 2713 2670 2916 
Q 2900 3119 2900 3481 
Q 2900 3844 2670 4047 
Q 2441 4250 2034 4250 
Q 1625 4250 1398 4047 
Q 1172 3844 1172 3481 
z
" transform="scale(0.015625)"/>
       </defs>
       <use xlink:href="#DejaVuSans-38"/>
      </g>
     </g>
    </g>
    <g id="xtick_5">
     <g id="line2d_9">
      <path d="M 264.729668 170.198125 
L 264.729668 22.318125 
" clip-path="url(#p6d17975060)" style="fill: none; stroke-dasharray: 2.96,1.28; stroke-dashoffset: 0; stroke: #b0b0b0; stroke-opacity: 0.3; stroke-width: 0.8"/>
     </g>
     <g id="line2d_10">
      <g>
       <use xlink:href="#mfbbeef4bad" x="264.729668" y="170.198125" style="stroke: #000000; stroke-width: 0.8"/>
      </g>
     </g>
     <g id="text_5">
      <!-- 9 -->
      <g transform="translate(261.548418 184.796562) scale(0.1 -0.1)">
       <defs>
        <path id="DejaVuSans-39" d="M 703 97 
L 703 672 
Q 941 559 1184 500 
Q 1428 441 1663 441 
Q 2288 441 2617 861 
Q 2947 1281 2994 2138 
Q 2813 1869 2534 1725 
Q 2256 1581 1919 1581 
Q 1219 1581 811 2004 
Q 403 2428 403 3163 
Q 403 3881 828 4315 
Q 1253 4750 1959 4750 
Q 2769 4750 3195 4129 
Q 3622 3509 3622 2328 
Q 3622 1225 3098 567 
Q 2575 -91 1691 -91 
Q 1453 -91 1209 -44 
Q 966 3 703 97 
z
M 1959 2075 
Q 2384 2075 2632 2365 
Q 2881 2656 2881 3163 
Q 2881 3666 2632 3958 
Q 2384 4250 1959 4250 
Q 1534 4250 1286 3958 
Q 1038 3666 1038 3163 
Q 1038 2656 1286 2365 
Q 1534 2075 1959 2075 
z
" transform="scale(0.015625)"/>
       </defs>
       <use xlink:href="#DejaVuSans-39"/>
      </g>
     </g>
    </g>
    <g id="text_6">
     <!-- Training set (% of full train data) -->
     <g transform="translate(67.785937 199.994375) scale(0.12 -0.12)">
      <defs>
       <path id="DejaVuSans-BoldOblique-54" d="M 488 4666 
L 4788 4666 
L 4609 3756 
L 3059 3756 
L 2328 0 
L 1125 0 
L 1856 3756 
L 306 3756 
L 488 4666 
z
" transform="scale(0.015625)"/>
       <path id="DejaVuSans-BoldOblique-72" d="M 3291 2547 
Q 3175 2613 3034 2647 
Q 2894 2681 2731 2681 
Q 2303 2681 2020 2406 
Q 1738 2131 1638 1613 
L 1319 0 
L 197 0 
L 878 3500 
L 2003 3500 
L 1881 2900 
Q 2103 3231 2436 3407 
Q 2769 3584 3175 3584 
Q 3234 3584 3309 3578 
Q 3384 3572 3488 3559 
L 3291 2547 
z
" transform="scale(0.015625)"/>
       <path id="DejaVuSans-BoldOblique-61" d="M 2106 1575 
Q 1688 1575 1473 1445 
Q 1259 1316 1259 1063 
Q 1259 872 1386 762 
Q 1513 653 1734 653 
Q 2078 653 2309 861 
Q 2541 1069 2619 1447 
L 2644 1575 
L 2106 1575 
z
M 3853 1997 
L 3463 0 
L 2344 0 
L 2438 519 
Q 2163 206 1856 57 
Q 1550 -91 1191 -91 
Q 694 -91 401 167 
Q 109 425 109 863 
Q 109 1531 626 1886 
Q 1144 2241 2119 2241 
L 2778 2241 
L 2791 2328 
Q 2800 2372 2801 2390 
Q 2803 2409 2803 2425 
Q 2803 2631 2608 2736 
Q 2413 2841 2028 2841 
Q 1681 2841 1356 2769 
Q 1031 2697 728 2553 
L 897 3406 
Q 1247 3494 1614 3539 
Q 1981 3584 2375 3584 
Q 3153 3584 3531 3317 
Q 3909 3050 3909 2503 
Q 3909 2397 3895 2270 
Q 3881 2144 3853 1997 
z
" transform="scale(0.015625)"/>
       <path id="DejaVuSans-BoldOblique-69" d="M 878 3500 
L 2003 3500 
L 1319 0 
L 197 0 
L 878 3500 
z
M 1141 4863 
L 2266 4863 
L 2088 3950 
L 959 3950 
L 1141 4863 
z
" transform="scale(0.015625)"/>
       <path id="DejaVuSans-BoldOblique-6e" d="M 4128 2131 
L 3713 0 
L 2591 0 
L 2944 1825 
Q 2981 2003 3001 2126 
Q 3022 2250 3022 2322 
Q 3022 2522 2911 2631 
Q 2800 2741 2597 2741 
Q 2250 2741 2001 2470 
Q 1753 2200 1656 1722 
L 1319 0 
L 197 0 
L 878 3500 
L 2003 3500 
L 1900 2988 
Q 2209 3291 2521 3437 
Q 2834 3584 3175 3584 
Q 3659 3584 3921 3331 
Q 4184 3078 4184 2619 
Q 4184 2519 4170 2397 
Q 4156 2275 4128 2131 
z
" transform="scale(0.015625)"/>
       <path id="DejaVuSans-BoldOblique-67" d="M 2675 594 
Q 2406 288 2128 144 
Q 1850 0 1522 0 
Q 928 0 583 383 
Q 238 766 238 1428 
Q 238 1781 358 2136 
Q 478 2491 703 2803 
Q 978 3181 1334 3379 
Q 1691 3578 2100 3578 
Q 2469 3578 2720 3434 
Q 2972 3291 3144 2981 
L 3238 3500 
L 4366 3500 
L 3775 459 
Q 3594 -481 3000 -931 
Q 2406 -1381 1350 -1381 
Q 1025 -1381 723 -1331 
Q 422 -1281 128 -1178 
L 294 -306 
Q 559 -475 825 -558 
Q 1091 -641 1369 -641 
Q 1925 -641 2223 -403 
Q 2522 -166 2625 353 
L 2675 594 
z
M 2363 2772 
Q 1950 2772 1676 2400 
Q 1403 2028 1403 1466 
Q 1403 1147 1550 980 
Q 1697 813 1978 813 
Q 2388 813 2663 1183 
Q 2938 1553 2938 2106 
Q 2938 2431 2791 2601 
Q 2644 2772 2363 2772 
z
" transform="scale(0.015625)"/>
       <path id="DejaVuSans-BoldOblique-20" transform="scale(0.015625)"/>
       <path id="DejaVuSans-BoldOblique-73" d="M 3584 3391 
L 3419 2522 
Q 3091 2678 2766 2759 
Q 2441 2841 2150 2841 
Q 1819 2841 1639 2755 
Q 1459 2669 1459 2509 
Q 1459 2416 1559 2359 
Q 1659 2303 1953 2241 
L 2156 2203 
Q 2834 2059 3106 1832 
Q 3378 1606 3378 1203 
Q 3378 594 2900 251 
Q 2422 -91 1563 -91 
Q 1203 -91 828 -34 
Q 453 22 63 134 
L 231 1013 
Q 534 834 879 743 
Q 1225 653 1588 653 
Q 1941 653 2119 737 
Q 2297 822 2297 984 
Q 2297 1097 2197 1159 
Q 2097 1222 1784 1288 
L 1581 1325 
Q 981 1450 725 1694 
Q 469 1938 469 2369 
Q 469 2953 911 3268 
Q 1353 3584 2175 3584 
Q 2534 3584 2882 3536 
Q 3231 3488 3584 3391 
z
" transform="scale(0.015625)"/>
       <path id="DejaVuSans-BoldOblique-65" d="M 4025 1619 
L 3988 1441 
L 1369 1441 
Q 1369 1422 1366 1386 
Q 1363 1350 1363 1331 
Q 1363 991 1567 822 
Q 1772 653 2181 653 
Q 2534 653 2926 759 
Q 3319 866 3750 1075 
L 3578 206 
Q 3169 56 2764 -17 
Q 2359 -91 1941 -91 
Q 1122 -91 676 287 
Q 231 666 231 1356 
Q 231 1756 373 2132 
Q 516 2509 788 2822 
Q 1109 3197 1557 3390 
Q 2006 3584 2553 3584 
Q 3263 3584 3680 3206 
Q 4097 2828 4097 2188 
Q 4097 2063 4080 1923 
Q 4063 1784 4025 1619 
z
M 2969 2131 
Q 2978 2172 2983 2214 
Q 2988 2256 2988 2297 
Q 2988 2547 2838 2694 
Q 2688 2841 2431 2841 
Q 2103 2841 1873 2661 
Q 1644 2481 1522 2131 
L 2969 2131 
z
" transform="scale(0.015625)"/>
       <path id="DejaVuSans-BoldOblique-74" d="M 2303 4494 
L 2113 3500 
L 3256 3500 
L 3097 2700 
L 1953 2700 
L 1666 1219 
Q 1653 1169 1648 1134 
Q 1644 1100 1644 1069 
Q 1644 925 1739 862 
Q 1834 800 2059 800 
L 2638 800 
L 2478 0 
L 1538 0 
Q 1031 0 765 212 
Q 500 425 500 825 
Q 500 913 509 1013 
Q 519 1113 538 1216 
L 825 2700 
L 275 2700 
L 428 3500 
L 984 3500 
L 1178 4494 
L 2303 4494 
z
" transform="scale(0.015625)"/>
       <path id="DejaVuSans-BoldOblique-28" d="M 1888 -844 
L 978 -844 
Q 734 -325 614 173 
Q 494 672 494 1166 
Q 494 2088 891 3008 
Q 1288 3928 2088 4856 
L 2994 4856 
Q 2266 3888 1908 2939 
Q 1550 1991 1550 1038 
Q 1550 569 1634 101 
Q 1719 -366 1888 -844 
z
" transform="scale(0.015625)"/>
       <path id="DejaVuSans-BoldOblique-25" d="M 4891 1925 
Q 4622 1925 4448 1662 
Q 4275 1400 4275 984 
Q 4275 713 4370 577 
Q 4466 441 4659 441 
Q 4931 441 5103 703 
Q 5275 966 5275 1388 
Q 5275 1653 5176 1789 
Q 5078 1925 4891 1925 
z
M 4978 2450 
Q 5469 2450 5764 2183 
Q 6059 1916 6059 1478 
Q 6059 778 5645 343 
Q 5231 -91 4563 -91 
Q 4072 -91 3776 179 
Q 3481 450 3481 891 
Q 3481 1584 3895 2017 
Q 4309 2450 4978 2450 
z
M 1663 -91 
L 897 -91 
L 4756 4750 
L 5522 4750 
L 1663 -91 
z
M 1856 4750 
Q 2344 4750 2641 4481 
Q 2938 4213 2938 3775 
Q 2938 3078 2520 2643 
Q 2103 2209 1434 2209 
Q 944 2209 648 2475 
Q 353 2741 353 3181 
Q 353 3875 770 4312 
Q 1188 4750 1856 4750 
z
M 1759 4225 
Q 1491 4225 1319 3961 
Q 1147 3697 1147 3284 
Q 1147 3009 1242 2870 
Q 1338 2731 1528 2731 
Q 1800 2731 1972 2997 
Q 2144 3263 2144 3688 
Q 2144 3950 2045 4087 
Q 1947 4225 1759 4225 
z
" transform="scale(0.015625)"/>
       <path id="DejaVuSans-BoldOblique-6f" d="M 2400 2784 
Q 1966 2784 1684 2390 
Q 1403 1997 1403 1388 
Q 1403 1056 1554 882 
Q 1706 709 1997 709 
Q 2431 709 2712 1104 
Q 2994 1500 2994 2113 
Q 2994 2441 2842 2612 
Q 2691 2784 2400 2784 
z
M 2491 3584 
Q 3272 3584 3719 3187 
Q 4166 2791 4166 2106 
Q 4166 1709 4025 1336 
Q 3884 963 3616 653 
Q 3297 284 2862 96 
Q 2428 -91 1894 -91 
Q 1122 -91 676 306 
Q 231 703 231 1388 
Q 231 1781 375 2157 
Q 519 2534 788 2847 
Q 1100 3209 1533 3396 
Q 1966 3584 2491 3584 
z
" transform="scale(0.015625)"/>
       <path id="DejaVuSans-BoldOblique-66" d="M 3456 4863 
L 3309 4128 
L 2694 4128 
Q 2459 4128 2351 4042 
Q 2244 3956 2203 3747 
L 2150 3500 
L 3097 3500 
L 2944 2700 
L 1997 2700 
L 1472 0 
L 347 0 
L 872 2700 
L 319 2700 
L 475 3500 
L 1025 3500 
L 1075 3744 
Q 1191 4325 1556 4594 
Q 1922 4863 2597 4863 
L 3456 4863 
z
" transform="scale(0.015625)"/>
       <path id="DejaVuSans-BoldOblique-75" d="M 434 1363 
L 844 3500 
L 1966 3500 
L 1613 1678 
Q 1575 1500 1556 1375 
Q 1538 1250 1538 1178 
Q 1538 981 1647 872 
Q 1756 763 1959 763 
Q 2306 763 2556 1031 
Q 2806 1300 2900 1778 
L 3238 3500 
L 4359 3500 
L 3681 0 
L 2553 0 
L 2656 513 
Q 2369 209 2053 59 
Q 1738 -91 1388 -91 
Q 909 -91 646 162 
Q 384 416 384 878 
Q 384 988 396 1109 
Q 409 1231 434 1363 
z
" transform="scale(0.015625)"/>
       <path id="DejaVuSans-BoldOblique-6c" d="M 1141 4863 
L 2266 4863 
L 1319 0 
L 197 0 
L 1141 4863 
z
" transform="scale(0.015625)"/>
       <path id="DejaVuSans-BoldOblique-64" d="M 1966 722 
Q 2397 722 2667 1119 
Q 2938 1516 2938 2156 
Q 2938 2447 2786 2609 
Q 2634 2772 2363 2772 
Q 1938 2772 1663 2380 
Q 1388 1988 1388 1375 
Q 1388 1056 1536 889 
Q 1684 722 1966 722 
z
M 3144 2988 
L 3506 4863 
L 4634 4863 
L 3688 0 
L 2559 0 
L 2663 506 
Q 2406 200 2125 54 
Q 1844 -91 1509 -91 
Q 919 -91 575 284 
Q 231 659 231 1306 
Q 231 1709 351 2090 
Q 472 2472 697 2784 
Q 981 3178 1339 3381 
Q 1697 3584 2106 3584 
Q 2466 3584 2717 3439 
Q 2969 3294 3144 2988 
z
" transform="scale(0.015625)"/>
       <path id="DejaVuSans-BoldOblique-29" d="M 934 4856 
L 1850 4856 
Q 2091 4344 2209 3845 
Q 2328 3347 2328 2847 
Q 2328 1916 1933 995 
Q 1538 75 744 -844 
L -172 -844 
Q 556 125 915 1075 
Q 1275 2025 1275 2981 
Q 1275 3450 1190 3914 
Q 1106 4378 934 4856 
z
" transform="scale(0.015625)"/>
      </defs>
      <use xlink:href="#DejaVuSans-BoldOblique-54"/>
      <use xlink:href="#DejaVuSans-BoldOblique-72" transform="translate(57.212891 0)"/>
      <use xlink:href="#DejaVuSans-BoldOblique-61" transform="translate(106.529297 0)"/>
      <use xlink:href="#DejaVuSans-BoldOblique-69" transform="translate(174.009766 0)"/>
      <use xlink:href="#DejaVuSans-BoldOblique-6e" transform="translate(208.287109 0)"/>
      <use xlink:href="#DejaVuSans-BoldOblique-69" transform="translate(279.478516 0)"/>
      <use xlink:href="#DejaVuSans-BoldOblique-6e" transform="translate(313.755859 0)"/>
      <use xlink:href="#DejaVuSans-BoldOblique-67" transform="translate(384.947266 0)"/>
      <use xlink:href="#DejaVuSans-BoldOblique-20" transform="translate(456.529297 0)"/>
      <use xlink:href="#DejaVuSans-BoldOblique-73" transform="translate(491.34375 0)"/>
      <use xlink:href="#DejaVuSans-BoldOblique-65" transform="translate(550.865234 0)"/>
      <use xlink:href="#DejaVuSans-BoldOblique-74" transform="translate(618.6875 0)"/>
      <use xlink:href="#DejaVuSans-BoldOblique-20" transform="translate(666.490234 0)"/>
      <use xlink:href="#DejaVuSans-BoldOblique-28" transform="translate(701.304688 0)"/>
      <use xlink:href="#DejaVuSans-BoldOblique-25" transform="translate(747.007812 0)"/>
      <use xlink:href="#DejaVuSans-BoldOblique-20" transform="translate(847.203125 0)"/>
      <use xlink:href="#DejaVuSans-BoldOblique-6f" transform="translate(882.017578 0)"/>
      <use xlink:href="#DejaVuSans-BoldOblique-66" transform="translate(950.71875 0)"/>
      <use xlink:href="#DejaVuSans-BoldOblique-20" transform="translate(994.224609 0)"/>
      <use xlink:href="#DejaVuSans-BoldOblique-66" transform="translate(1029.039062 0)"/>
      <use xlink:href="#DejaVuSans-BoldOblique-75" transform="translate(1072.544922 0)"/>
      <use xlink:href="#DejaVuSans-BoldOblique-6c" transform="translate(1143.736328 0)"/>
      <use xlink:href="#DejaVuSans-BoldOblique-6c" transform="translate(1178.013672 0)"/>
      <use xlink:href="#DejaVuSans-BoldOblique-20" transform="translate(1212.291016 0)"/>
      <use xlink:href="#DejaVuSans-BoldOblique-74" transform="translate(1247.105469 0)"/>
      <use xlink:href="#DejaVuSans-BoldOblique-72" transform="translate(1294.908203 0)"/>
      <use xlink:href="#DejaVuSans-BoldOblique-61" transform="translate(1344.224609 0)"/>
      <use xlink:href="#DejaVuSans-BoldOblique-69" transform="translate(1411.705078 0)"/>
      <use xlink:href="#DejaVuSans-BoldOblique-6e" transform="translate(1445.982422 0)"/>
      <use xlink:href="#DejaVuSans-BoldOblique-20" transform="translate(1517.173828 0)"/>
      <use xlink:href="#DejaVuSans-BoldOblique-64" transform="translate(1551.988281 0)"/>
      <use xlink:href="#DejaVuSans-BoldOblique-61" transform="translate(1623.570312 0)"/>
      <use xlink:href="#DejaVuSans-BoldOblique-74" transform="translate(1691.050781 0)"/>
      <use xlink:href="#DejaVuSans-BoldOblique-61" transform="translate(1738.853516 0)"/>
      <use xlink:href="#DejaVuSans-BoldOblique-29" transform="translate(1806.333984 0)"/>
     </g>
    </g>
   </g>
   <g id="matplotlib.axis_2">
    <g id="ytick_1">
     <g id="line2d_11">
      <path d="M 45.716875 165.84605 
L 312.096875 165.84605 
" clip-path="url(#p6d17975060)" style="fill: none; stroke-dasharray: 2.96,1.28; stroke-dashoffset: 0; stroke: #b0b0b0; stroke-opacity: 0.3; stroke-width: 0.8"/>
     </g>
     <g id="line2d_12">
      <defs>
       <path id="m6128fda5b7" d="M 0 0 
L -3.5 0 
" style="stroke: #000000; stroke-width: 0.8"/>
      </defs>
      <g>
       <use xlink:href="#m6128fda5b7" x="45.716875" y="165.84605" style="stroke: #000000; stroke-width: 0.8"/>
      </g>
     </g>
     <g id="text_7">
      <!-- 0.4 -->
      <g transform="translate(22.81375 169.645269) scale(0.1 -0.1)">
       <defs>
        <path id="DejaVuSans-30" d="M 2034 4250 
Q 1547 4250 1301 3770 
Q 1056 3291 1056 2328 
Q 1056 1369 1301 889 
Q 1547 409 2034 409 
Q 2525 409 2770 889 
Q 3016 1369 3016 2328 
Q 3016 3291 2770 3770 
Q 2525 4250 2034 4250 
z
M 2034 4750 
Q 2819 4750 3233 4129 
Q 3647 3509 3647 2328 
Q 3647 1150 3233 529 
Q 2819 -91 2034 -91 
Q 1250 -91 836 529 
Q 422 1150 422 2328 
Q 422 3509 836 4129 
Q 1250 4750 2034 4750 
z
" transform="scale(0.015625)"/>
        <path id="DejaVuSans-2e" d="M 684 794 
L 1344 794 
L 1344 0 
L 684 0 
L 684 794 
z
" transform="scale(0.015625)"/>
        <path id="DejaVuSans-34" d="M 2419 4116 
L 825 1625 
L 2419 1625 
L 2419 4116 
z
M 2253 4666 
L 3047 4666 
L 3047 1625 
L 3713 1625 
L 3713 1100 
L 3047 1100 
L 3047 0 
L 2419 0 
L 2419 1100 
L 313 1100 
L 313 1709 
L 2253 4666 
z
" transform="scale(0.015625)"/>
       </defs>
       <use xlink:href="#DejaVuSans-30"/>
       <use xlink:href="#DejaVuSans-2e" transform="translate(63.623047 0)"/>
       <use xlink:href="#DejaVuSans-34" transform="translate(95.410156 0)"/>
      </g>
     </g>
    </g>
    <g id="ytick_2">
     <g id="line2d_13">
      <path d="M 45.716875 131.783588 
L 312.096875 131.783588 
" clip-path="url(#p6d17975060)" style="fill: none; stroke-dasharray: 2.96,1.28; stroke-dashoffset: 0; stroke: #b0b0b0; stroke-opacity: 0.3; stroke-width: 0.8"/>
     </g>
     <g id="line2d_14">
      <g>
       <use xlink:href="#m6128fda5b7" x="45.716875" y="131.783588" style="stroke: #000000; stroke-width: 0.8"/>
      </g>
     </g>
     <g id="text_8">
      <!-- 0.5 -->
      <g transform="translate(22.81375 135.582807) scale(0.1 -0.1)">
       <use xlink:href="#DejaVuSans-30"/>
       <use xlink:href="#DejaVuSans-2e" transform="translate(63.623047 0)"/>
       <use xlink:href="#DejaVuSans-35" transform="translate(95.410156 0)"/>
      </g>
     </g>
    </g>
    <g id="ytick_3">
     <g id="line2d_15">
      <path d="M 45.716875 97.721126 
L 312.096875 97.721126 
" clip-path="url(#p6d17975060)" style="fill: none; stroke-dasharray: 2.96,1.28; stroke-dashoffset: 0; stroke: #b0b0b0; stroke-opacity: 0.3; stroke-width: 0.8"/>
     </g>
     <g id="line2d_16">
      <g>
       <use xlink:href="#m6128fda5b7" x="45.716875" y="97.721126" style="stroke: #000000; stroke-width: 0.8"/>
      </g>
     </g>
     <g id="text_9">
      <!-- 0.6 -->
      <g transform="translate(22.81375 101.520345) scale(0.1 -0.1)">
       <use xlink:href="#DejaVuSans-30"/>
       <use xlink:href="#DejaVuSans-2e" transform="translate(63.623047 0)"/>
       <use xlink:href="#DejaVuSans-36" transform="translate(95.410156 0)"/>
      </g>
     </g>
    </g>
    <g id="ytick_4">
     <g id="line2d_17">
      <path d="M 45.716875 63.658665 
L 312.096875 63.658665 
" clip-path="url(#p6d17975060)" style="fill: none; stroke-dasharray: 2.96,1.28; stroke-dashoffset: 0; stroke: #b0b0b0; stroke-opacity: 0.3; stroke-width: 0.8"/>
     </g>
     <g id="line2d_18">
      <g>
       <use xlink:href="#m6128fda5b7" x="45.716875" y="63.658665" style="stroke: #000000; stroke-width: 0.8"/>
      </g>
     </g>
     <g id="text_10">
      <!-- 0.7 -->
      <g transform="translate(22.81375 67.457883) scale(0.1 -0.1)">
       <use xlink:href="#DejaVuSans-30"/>
       <use xlink:href="#DejaVuSans-2e" transform="translate(63.623047 0)"/>
       <use xlink:href="#DejaVuSans-37" transform="translate(95.410156 0)"/>
      </g>
     </g>
    </g>
    <g id="ytick_5">
     <g id="line2d_19">
      <path d="M 45.716875 29.596203 
L 312.096875 29.596203 
" clip-path="url(#p6d17975060)" style="fill: none; stroke-dasharray: 2.96,1.28; stroke-dashoffset: 0; stroke: #b0b0b0; stroke-opacity: 0.3; stroke-width: 0.8"/>
     </g>
     <g id="line2d_20">
      <g>
       <use xlink:href="#m6128fda5b7" x="45.716875" y="29.596203" style="stroke: #000000; stroke-width: 0.8"/>
      </g>
     </g>
     <g id="text_11">
      <!-- 0.8 -->
      <g transform="translate(22.81375 33.395421) scale(0.1 -0.1)">
       <use xlink:href="#DejaVuSans-30"/>
       <use xlink:href="#DejaVuSans-2e" transform="translate(63.623047 0)"/>
       <use xlink:href="#DejaVuSans-38" transform="translate(95.410156 0)"/>
      </g>
     </g>
    </g>
    <g id="text_12">
     <!-- CV BACC (mean ± SD) -->
     <g transform="translate(16.318125 169.952187) rotate(-90) scale(0.12 -0.12)">
      <defs>
       <path id="DejaVuSans-BoldOblique-43" d="M 3878 219 
Q 3447 66 3050 -12 
Q 2653 -91 2297 -91 
Q 1356 -91 793 425 
Q 231 941 231 1791 
Q 231 2350 409 2845 
Q 588 3341 934 3750 
Q 1344 4231 1920 4490 
Q 2497 4750 3163 4750 
Q 3525 4750 3890 4664 
Q 4256 4578 4634 4403 
L 4441 3438 
Q 4141 3666 3837 3772 
Q 3534 3878 3188 3878 
Q 2466 3878 1978 3322 
Q 1491 2766 1491 1931 
Q 1491 1394 1791 1087 
Q 2091 781 2619 781 
Q 2934 781 3289 895 
Q 3644 1009 4084 1253 
L 3878 219 
z
" transform="scale(0.015625)"/>
       <path id="DejaVuSans-BoldOblique-56" d="M 488 4666 
L 1631 4666 
L 2203 1178 
L 4134 4666 
L 5375 4666 
L 2741 0 
L 1306 0 
L 488 4666 
z
" transform="scale(0.015625)"/>
       <path id="DejaVuSans-BoldOblique-42" d="M 2559 2859 
Q 2881 2859 3062 3021 
Q 3244 3184 3244 3469 
Q 3244 3653 3117 3750 
Q 2991 3847 2753 3847 
L 2081 3847 
L 1888 2859 
L 2559 2859 
z
M 2203 819 
Q 2616 819 2837 1016 
Q 3059 1213 3059 1581 
Q 3059 1816 2906 1928 
Q 2753 2041 2438 2041 
L 1728 2041 
L 1491 819 
L 2203 819 
z
M 3628 2497 
Q 3934 2409 4101 2176 
Q 4269 1944 4269 1600 
Q 4269 847 3708 423 
Q 3147 0 2131 0 
L 134 0 
L 1044 4666 
L 2847 4666 
Q 3678 4666 4076 4422 
Q 4475 4178 4475 3669 
Q 4475 3241 4240 2917 
Q 4006 2594 3628 2497 
z
" transform="scale(0.015625)"/>
       <path id="DejaVuSans-BoldOblique-41" d="M 3144 850 
L 1281 850 
L 819 0 
L -416 0 
L 2222 4666 
L 3597 4666 
L 4422 0 
L 3278 0 
L 3144 850 
z
M 1734 1697 
L 2988 1697 
L 2706 3494 
L 1734 1697 
z
" transform="scale(0.015625)"/>
       <path id="DejaVuSans-BoldOblique-6d" d="M 4013 2919 
Q 4272 3241 4601 3412 
Q 4931 3584 5288 3584 
Q 5756 3584 6026 3326 
Q 6297 3069 6297 2619 
Q 6297 2525 6283 2404 
Q 6269 2284 6241 2131 
L 5825 0 
L 4697 0 
L 5050 1825 
L 5059 1872 
Q 5141 2259 5141 2369 
Q 5141 2541 5042 2641 
Q 4944 2741 4775 2741 
Q 4453 2741 4229 2477 
Q 4006 2213 3909 1722 
L 3572 0 
L 2444 0 
L 2803 1825 
Q 2850 2059 2869 2179 
Q 2888 2300 2888 2369 
Q 2888 2544 2791 2642 
Q 2694 2741 2522 2741 
Q 2213 2741 1980 2467 
Q 1747 2194 1656 1722 
L 1319 0 
L 197 0 
L 878 3500 
L 2003 3500 
L 1900 2988 
Q 2163 3284 2459 3434 
Q 2756 3584 3078 3584 
Q 3441 3584 3700 3398 
Q 3959 3213 4013 2919 
z
" transform="scale(0.015625)"/>
       <path id="DejaVuSans-BoldOblique-b1" d="M 3053 4013 
L 3053 2906 
L 4684 2906 
L 4684 2169 
L 3053 2169 
L 3053 1063 
L 2309 1063 
L 2309 2169 
L 678 2169 
L 678 2906 
L 2309 2906 
L 2309 4013 
L 3053 4013 
z
M 678 744 
L 4684 744 
L 4684 0 
L 678 0 
L 678 744 
z
" transform="scale(0.015625)"/>
       <path id="DejaVuSans-BoldOblique-53" d="M 4256 4519 
L 4063 3531 
Q 3709 3706 3365 3792 
Q 3022 3878 2694 3878 
Q 2244 3878 1992 3737 
Q 1741 3597 1741 3347 
Q 1741 3188 1852 3098 
Q 1963 3009 2309 2925 
L 2803 2803 
Q 3422 2647 3711 2351 
Q 4000 2056 4000 1588 
Q 4000 828 3423 368 
Q 2847 -91 1875 -91 
Q 1422 -91 973 -6 
Q 525 78 97 244 
L 288 1259 
Q 703 1019 1095 900 
Q 1488 781 1869 781 
Q 2281 781 2539 950 
Q 2797 1119 2797 1381 
Q 2797 1553 2681 1648 
Q 2566 1744 2175 1844 
L 1684 1966 
Q 1141 2100 875 2390 
Q 609 2681 609 3144 
Q 609 3872 1167 4311 
Q 1725 4750 2669 4750 
Q 3047 4750 3445 4692 
Q 3844 4634 4256 4519 
z
" transform="scale(0.015625)"/>
       <path id="DejaVuSans-BoldOblique-44" d="M 2075 3756 
L 1516 909 
L 1947 909 
Q 2788 909 3278 1381 
Q 3769 1853 3769 2656 
Q 3769 3200 3448 3478 
Q 3128 3756 2497 3756 
L 2075 3756 
z
M 1044 4666 
L 2309 4666 
Q 3216 4666 3669 4558 
Q 4122 4450 4422 4197 
Q 4725 3944 4878 3583 
Q 5031 3222 5031 2766 
Q 5031 2131 4770 1570 
Q 4509 1009 4038 628 
Q 3625 288 3079 144 
Q 2534 0 1403 0 
L 134 0 
L 1044 4666 
z
" transform="scale(0.015625)"/>
      </defs>
      <use xlink:href="#DejaVuSans-BoldOblique-43"/>
      <use xlink:href="#DejaVuSans-BoldOblique-56" transform="translate(73.388672 0)"/>
      <use xlink:href="#DejaVuSans-BoldOblique-20" transform="translate(150.78125 0)"/>
      <use xlink:href="#DejaVuSans-BoldOblique-42" transform="translate(185.595703 0)"/>
      <use xlink:href="#DejaVuSans-BoldOblique-41" transform="translate(261.816406 0)"/>
      <use xlink:href="#DejaVuSans-BoldOblique-43" transform="translate(336.083984 0)"/>
      <use xlink:href="#DejaVuSans-BoldOblique-43" transform="translate(409.472656 0)"/>
      <use xlink:href="#DejaVuSans-BoldOblique-20" transform="translate(482.861328 0)"/>
      <use xlink:href="#DejaVuSans-BoldOblique-28" transform="translate(517.675781 0)"/>
      <use xlink:href="#DejaVuSans-BoldOblique-6d" transform="translate(563.378906 0)"/>
      <use xlink:href="#DejaVuSans-BoldOblique-65" transform="translate(667.578125 0)"/>
      <use xlink:href="#DejaVuSans-BoldOblique-61" transform="translate(735.400391 0)"/>
      <use xlink:href="#DejaVuSans-BoldOblique-6e" transform="translate(802.880859 0)"/>
      <use xlink:href="#DejaVuSans-BoldOblique-20" transform="translate(874.072266 0)"/>
      <use xlink:href="#DejaVuSans-BoldOblique-b1" transform="translate(908.886719 0)"/>
      <use xlink:href="#DejaVuSans-BoldOblique-20" transform="translate(992.675781 0)"/>
      <use xlink:href="#DejaVuSans-BoldOblique-53" transform="translate(1027.490234 0)"/>
      <use xlink:href="#DejaVuSans-BoldOblique-44" transform="translate(1099.511719 0)"/>
      <use xlink:href="#DejaVuSans-BoldOblique-29" transform="translate(1182.519531 0)"/>
     </g>
    </g>
   </g>
   <g id="LineCollection_1">
    <path d="M 57.825057 127.066517 
L 57.825057 30.666182 
" clip-path="url(#p6d17975060)" style="fill: none; stroke: #4169e1; stroke-opacity: 0.85"/>
    <path d="M 82.04142 125.040513 
L 82.04142 82.057612 
" clip-path="url(#p6d17975060)" style="fill: none; stroke: #4169e1; stroke-opacity: 0.85"/>
    <path d="M 106.257784 133.658075 
L 106.257784 36.45568 
" clip-path="url(#p6d17975060)" style="fill: none; stroke: #4169e1; stroke-opacity: 0.85"/>
    <path d="M 130.474148 132.395014 
L 130.474148 39.091222 
" clip-path="url(#p6d17975060)" style="fill: none; stroke: #4169e1; stroke-opacity: 0.85"/>
    <path d="M 154.690511 144.529857 
L 154.690511 70.37666 
" clip-path="url(#p6d17975060)" style="fill: none; stroke: #4169e1; stroke-opacity: 0.85"/>
    <path d="M 178.906875 120.649558 
L 178.906875 76.779672 
" clip-path="url(#p6d17975060)" style="fill: none; stroke: #4169e1; stroke-opacity: 0.85"/>
    <path d="M 203.123239 153.393391 
L 203.123239 88.634288 
" clip-path="url(#p6d17975060)" style="fill: none; stroke: #4169e1; stroke-opacity: 0.85"/>
    <path d="M 227.339602 134.480166 
L 227.339602 61.629979 
" clip-path="url(#p6d17975060)" style="fill: none; stroke: #4169e1; stroke-opacity: 0.85"/>
    <path d="M 251.555966 109.921008 
L 251.555966 37.315889 
" clip-path="url(#p6d17975060)" style="fill: none; stroke: #4169e1; stroke-opacity: 0.85"/>
    <path d="M 275.77233 138.089379 
L 275.77233 97.499341 
" clip-path="url(#p6d17975060)" style="fill: none; stroke: #4169e1; stroke-opacity: 0.85"/>
    <path d="M 299.988693 119.506648 
L 299.988693 48.193596 
" clip-path="url(#p6d17975060)" style="fill: none; stroke: #4169e1; stroke-opacity: 0.85"/>
   </g>
   <g id="LineCollection_2">
    <path d="M 57.825057 127.066517 
L 57.825057 30.666182 
" clip-path="url(#p6d17975060)" style="fill: none; stroke: #ff0000; stroke-opacity: 0.85"/>
    <path d="M 82.04142 133.44327 
L 82.04142 66.715324 
" clip-path="url(#p6d17975060)" style="fill: none; stroke: #ff0000; stroke-opacity: 0.85"/>
    <path d="M 106.257784 140.6305 
L 106.257784 93.241197 
" clip-path="url(#p6d17975060)" style="fill: none; stroke: #ff0000; stroke-opacity: 0.85"/>
    <path d="M 130.474148 124.05687 
L 130.474148 51.172493 
" clip-path="url(#p6d17975060)" style="fill: none; stroke: #ff0000; stroke-opacity: 0.85"/>
    <path d="M 154.690511 85.855446 
L 154.690511 44.705927 
" clip-path="url(#p6d17975060)" style="fill: none; stroke: #ff0000; stroke-opacity: 0.85"/>
    <path d="M 178.906875 102.8219 
L 178.906875 60.017711 
" clip-path="url(#p6d17975060)" style="fill: none; stroke: #ff0000; stroke-opacity: 0.85"/>
    <path d="M 203.123239 112.246767 
L 203.123239 48.097792 
" clip-path="url(#p6d17975060)" style="fill: none; stroke: #ff0000; stroke-opacity: 0.85"/>
    <path d="M 227.339602 112.489025 
L 227.339602 76.719575 
" clip-path="url(#p6d17975060)" style="fill: none; stroke: #ff0000; stroke-opacity: 0.85"/>
    <path d="M 251.555966 85.981487 
L 251.555966 53.685975 
" clip-path="url(#p6d17975060)" style="fill: none; stroke: #ff0000; stroke-opacity: 0.85"/>
    <path d="M 275.77233 116.31896 
L 275.77233 45.240107 
" clip-path="url(#p6d17975060)" style="fill: none; stroke: #ff0000; stroke-opacity: 0.85"/>
    <path d="M 299.988693 119.384213 
L 299.988693 57.891393 
" clip-path="url(#p6d17975060)" style="fill: none; stroke: #ff0000; stroke-opacity: 0.85"/>
   </g>
   <g id="LineCollection_3">
    <path d="M 57.825057 127.066517 
L 57.825057 30.666182 
" clip-path="url(#p6d17975060)" style="fill: none; stroke: #008000; stroke-opacity: 0.85"/>
    <path d="M 82.04142 121.898769 
L 82.04142 29.405203 
" clip-path="url(#p6d17975060)" style="fill: none; stroke: #008000; stroke-opacity: 0.85"/>
    <path d="M 106.257784 134.218449 
L 106.257784 75.00532 
" clip-path="url(#p6d17975060)" style="fill: none; stroke: #008000; stroke-opacity: 0.85"/>
    <path d="M 130.474148 80.579534 
L 130.474148 50.855235 
" clip-path="url(#p6d17975060)" style="fill: none; stroke: #008000; stroke-opacity: 0.85"/>
    <path d="M 154.690511 93.957691 
L 154.690511 29.79119 
" clip-path="url(#p6d17975060)" style="fill: none; stroke: #008000; stroke-opacity: 0.85"/>
    <path d="M 178.906875 113.816165 
L 178.906875 66.29798 
" clip-path="url(#p6d17975060)" style="fill: none; stroke: #008000; stroke-opacity: 0.85"/>
    <path d="M 203.123239 139.240858 
L 203.123239 88.510642 
" clip-path="url(#p6d17975060)" style="fill: none; stroke: #008000; stroke-opacity: 0.85"/>
    <path d="M 227.339602 109.228173 
L 227.339602 61.502098 
" clip-path="url(#p6d17975060)" style="fill: none; stroke: #008000; stroke-opacity: 0.85"/>
    <path d="M 251.555966 135.910725 
L 251.555966 51.962092 
" clip-path="url(#p6d17975060)" style="fill: none; stroke: #008000; stroke-opacity: 0.85"/>
    <path d="M 275.77233 99.630279 
L 275.77233 71.07187 
" clip-path="url(#p6d17975060)" style="fill: none; stroke: #008000; stroke-opacity: 0.85"/>
    <path d="M 299.988693 122.922205 
L 299.988693 68.140588 
" clip-path="url(#p6d17975060)" style="fill: none; stroke: #008000; stroke-opacity: 0.85"/>
   </g>
   <g id="LineCollection_4">
    <path d="M 57.825057 127.066517 
L 57.825057 30.666182 
" clip-path="url(#p6d17975060)" style="fill: none; stroke: #800080; stroke-opacity: 0.85"/>
    <path d="M 82.04142 122.946967 
L 82.04142 82.817244 
" clip-path="url(#p6d17975060)" style="fill: none; stroke: #800080; stroke-opacity: 0.85"/>
    <path d="M 106.257784 144.216937 
L 106.257784 68.256547 
" clip-path="url(#p6d17975060)" style="fill: none; stroke: #800080; stroke-opacity: 0.85"/>
    <path d="M 130.474148 83.577147 
L 130.474148 62.455821 
" clip-path="url(#p6d17975060)" style="fill: none; stroke: #800080; stroke-opacity: 0.85"/>
    <path d="M 154.690511 126.745815 
L 154.690511 43.717299 
" clip-path="url(#p6d17975060)" style="fill: none; stroke: #800080; stroke-opacity: 0.85"/>
    <path d="M 178.906875 112.178735 
L 178.906875 86.669764 
" clip-path="url(#p6d17975060)" style="fill: none; stroke: #800080; stroke-opacity: 0.85"/>
    <path d="M 203.123239 140.215854 
L 203.123239 76.515437 
" clip-path="url(#p6d17975060)" style="fill: none; stroke: #800080; stroke-opacity: 0.85"/>
    <path d="M 227.339602 136.514881 
L 227.339602 81.63568 
" clip-path="url(#p6d17975060)" style="fill: none; stroke: #800080; stroke-opacity: 0.85"/>
    <path d="M 251.555966 126.608477 
L 251.555966 74.21206 
" clip-path="url(#p6d17975060)" style="fill: none; stroke: #800080; stroke-opacity: 0.85"/>
    <path d="M 275.77233 93.589071 
L 275.77233 56.675601 
" clip-path="url(#p6d17975060)" style="fill: none; stroke: #800080; stroke-opacity: 0.85"/>
    <path d="M 299.988693 129.277788 
L 299.988693 70.868328 
" clip-path="url(#p6d17975060)" style="fill: none; stroke: #800080; stroke-opacity: 0.85"/>
   </g>
   <g id="LineCollection_5">
    <path d="M 57.825057 127.066517 
L 57.825057 30.666182 
" clip-path="url(#p6d17975060)" style="fill: none; stroke: #ffa500; stroke-opacity: 0.85"/>
    <path d="M 82.04142 144.32145 
L 82.04142 66.254382 
" clip-path="url(#p6d17975060)" style="fill: none; stroke: #ffa500; stroke-opacity: 0.85"/>
    <path d="M 106.257784 132.38372 
L 106.257784 103.251784 
" clip-path="url(#p6d17975060)" style="fill: none; stroke: #ffa500; stroke-opacity: 0.85"/>
    <path d="M 130.474148 133.135826 
L 130.474148 101.908718 
" clip-path="url(#p6d17975060)" style="fill: none; stroke: #ffa500; stroke-opacity: 0.85"/>
    <path d="M 154.690511 103.143452 
L 154.690511 29.039943 
" clip-path="url(#p6d17975060)" style="fill: none; stroke: #ffa500; stroke-opacity: 0.85"/>
    <path d="M 178.906875 119.990363 
L 178.906875 48.769628 
" clip-path="url(#p6d17975060)" style="fill: none; stroke: #ffa500; stroke-opacity: 0.85"/>
    <path d="M 203.123239 145.575252 
L 203.123239 119.74514 
" clip-path="url(#p6d17975060)" style="fill: none; stroke: #ffa500; stroke-opacity: 0.85"/>
    <path d="M 227.339602 122.703518 
L 227.339602 56.26408 
" clip-path="url(#p6d17975060)" style="fill: none; stroke: #ffa500; stroke-opacity: 0.85"/>
    <path d="M 251.555966 128.59889 
L 251.555966 67.440949 
" clip-path="url(#p6d17975060)" style="fill: none; stroke: #ffa500; stroke-opacity: 0.85"/>
    <path d="M 275.77233 65.388287 
L 275.77233 38.9817 
" clip-path="url(#p6d17975060)" style="fill: none; stroke: #ffa500; stroke-opacity: 0.85"/>
    <path d="M 299.988693 134.268901 
L 299.988693 118.704687 
" clip-path="url(#p6d17975060)" style="fill: none; stroke: #ffa500; stroke-opacity: 0.85"/>
   </g>
   <g id="LineCollection_6">
    <path d="M 57.825057 127.066517 
L 57.825057 30.666182 
" clip-path="url(#p6d17975060)" style="fill: none; stroke: #a52a2a; stroke-opacity: 0.85"/>
    <path d="M 82.04142 138.65836 
L 82.04142 90.298497 
" clip-path="url(#p6d17975060)" style="fill: none; stroke: #a52a2a; stroke-opacity: 0.85"/>
    <path d="M 106.257784 141.641778 
L 106.257784 76.792353 
" clip-path="url(#p6d17975060)" style="fill: none; stroke: #a52a2a; stroke-opacity: 0.85"/>
    <path d="M 130.474148 90.863851 
L 130.474148 37.701188 
" clip-path="url(#p6d17975060)" style="fill: none; stroke: #a52a2a; stroke-opacity: 0.85"/>
    <path d="M 154.690511 109.566893 
L 154.690511 57.003369 
" clip-path="url(#p6d17975060)" style="fill: none; stroke: #a52a2a; stroke-opacity: 0.85"/>
    <path d="M 178.906875 89.768857 
L 178.906875 38.967741 
" clip-path="url(#p6d17975060)" style="fill: none; stroke: #a52a2a; stroke-opacity: 0.85"/>
    <path d="M 203.123239 142.455788 
L 203.123239 90.304897 
" clip-path="url(#p6d17975060)" style="fill: none; stroke: #a52a2a; stroke-opacity: 0.85"/>
    <path d="M 227.339602 137.338146 
L 227.339602 67.677217 
" clip-path="url(#p6d17975060)" style="fill: none; stroke: #a52a2a; stroke-opacity: 0.85"/>
    <path d="M 251.555966 134.524184 
L 251.555966 64.1052 
" clip-path="url(#p6d17975060)" style="fill: none; stroke: #a52a2a; stroke-opacity: 0.85"/>
    <path d="M 275.77233 80.320513 
L 275.77233 63.419077 
" clip-path="url(#p6d17975060)" style="fill: none; stroke: #a52a2a; stroke-opacity: 0.85"/>
    <path d="M 299.988693 163.476307 
L 299.988693 76.941654 
" clip-path="url(#p6d17975060)" style="fill: none; stroke: #a52a2a; stroke-opacity: 0.85"/>
   </g>
   <g id="line2d_21">
    <path d="M 57.825057 78.86635 
L 82.04142 103.549063 
L 106.257784 85.056878 
L 130.474148 85.743118 
L 154.690511 107.453258 
L 178.906875 98.714615 
L 203.123239 121.013839 
L 227.339602 98.055072 
L 251.555966 73.618449 
L 275.77233 117.79436 
L 299.988693 83.850122 
" clip-path="url(#p6d17975060)" style="fill: none; stroke: #4169e1; stroke-opacity: 0.85; stroke-linecap: square"/>
    <defs>
     <path id="m140d7a513c" d="M 0 3 
C 0.795609 3 1.55874 2.683901 2.12132 2.12132 
C 2.683901 1.55874 3 0.795609 3 0 
C 3 -0.795609 2.683901 -1.55874 2.12132 -2.12132 
C 1.55874 -2.683901 0.795609 -3 0 -3 
C -0.795609 -3 -1.55874 -2.683901 -2.12132 -2.12132 
C -2.683901 -1.55874 -3 -0.795609 -3 0 
C -3 0.795609 -2.683901 1.55874 -2.12132 2.12132 
C -1.55874 2.683901 -0.795609 3 0 3 
z
" style="stroke: #4169e1; stroke-opacity: 0.85"/>
    </defs>
    <g clip-path="url(#p6d17975060)">
     <use xlink:href="#m140d7a513c" x="57.825057" y="78.86635" style="fill: #4169e1; fill-opacity: 0.85; stroke: #4169e1; stroke-opacity: 0.85"/>
     <use xlink:href="#m140d7a513c" x="82.04142" y="103.549063" style="fill: #4169e1; fill-opacity: 0.85; stroke: #4169e1; stroke-opacity: 0.85"/>
     <use xlink:href="#m140d7a513c" x="106.257784" y="85.056878" style="fill: #4169e1; fill-opacity: 0.85; stroke: #4169e1; stroke-opacity: 0.85"/>
     <use xlink:href="#m140d7a513c" x="130.474148" y="85.743118" style="fill: #4169e1; fill-opacity: 0.85; stroke: #4169e1; stroke-opacity: 0.85"/>
     <use xlink:href="#m140d7a513c" x="154.690511" y="107.453258" style="fill: #4169e1; fill-opacity: 0.85; stroke: #4169e1; stroke-opacity: 0.85"/>
     <use xlink:href="#m140d7a513c" x="178.906875" y="98.714615" style="fill: #4169e1; fill-opacity: 0.85; stroke: #4169e1; stroke-opacity: 0.85"/>
     <use xlink:href="#m140d7a513c" x="203.123239" y="121.013839" style="fill: #4169e1; fill-opacity: 0.85; stroke: #4169e1; stroke-opacity: 0.85"/>
     <use xlink:href="#m140d7a513c" x="227.339602" y="98.055072" style="fill: #4169e1; fill-opacity: 0.85; stroke: #4169e1; stroke-opacity: 0.85"/>
     <use xlink:href="#m140d7a513c" x="251.555966" y="73.618449" style="fill: #4169e1; fill-opacity: 0.85; stroke: #4169e1; stroke-opacity: 0.85"/>
     <use xlink:href="#m140d7a513c" x="275.77233" y="117.79436" style="fill: #4169e1; fill-opacity: 0.85; stroke: #4169e1; stroke-opacity: 0.85"/>
     <use xlink:href="#m140d7a513c" x="299.988693" y="83.850122" style="fill: #4169e1; fill-opacity: 0.85; stroke: #4169e1; stroke-opacity: 0.85"/>
    </g>
   </g>
   <g id="line2d_22">
    <path d="M 57.825057 78.86635 
L 82.04142 100.079297 
L 106.257784 116.935849 
L 130.474148 87.614682 
L 154.690511 65.280687 
L 178.906875 81.419805 
L 203.123239 80.17228 
L 227.339602 94.6043 
L 251.555966 69.833731 
L 275.77233 80.779534 
L 299.988693 88.637803 
" clip-path="url(#p6d17975060)" style="fill: none; stroke: #ff0000; stroke-opacity: 0.85; stroke-linecap: square"/>
    <defs>
     <path id="mcb7b4ff48f" d="M 0 -3 
L -3 3 
L 3 3 
z
" style="stroke: #ff0000; stroke-opacity: 0.85; stroke-linejoin: miter"/>
    </defs>
    <g clip-path="url(#p6d17975060)">
     <use xlink:href="#mcb7b4ff48f" x="57.825057" y="78.86635" style="fill: #ff0000; fill-opacity: 0.85; stroke: #ff0000; stroke-opacity: 0.85; stroke-linejoin: miter"/>
     <use xlink:href="#mcb7b4ff48f" x="82.04142" y="100.079297" style="fill: #ff0000; fill-opacity: 0.85; stroke: #ff0000; stroke-opacity: 0.85; stroke-linejoin: miter"/>
     <use xlink:href="#mcb7b4ff48f" x="106.257784" y="116.935849" style="fill: #ff0000; fill-opacity: 0.85; stroke: #ff0000; stroke-opacity: 0.85; stroke-linejoin: miter"/>
     <use xlink:href="#mcb7b4ff48f" x="130.474148" y="87.614682" style="fill: #ff0000; fill-opacity: 0.85; stroke: #ff0000; stroke-opacity: 0.85; stroke-linejoin: miter"/>
     <use xlink:href="#mcb7b4ff48f" x="154.690511" y="65.280687" style="fill: #ff0000; fill-opacity: 0.85; stroke: #ff0000; stroke-opacity: 0.85; stroke-linejoin: miter"/>
     <use xlink:href="#mcb7b4ff48f" x="178.906875" y="81.419805" style="fill: #ff0000; fill-opacity: 0.85; stroke: #ff0000; stroke-opacity: 0.85; stroke-linejoin: miter"/>
     <use xlink:href="#mcb7b4ff48f" x="203.123239" y="80.17228" style="fill: #ff0000; fill-opacity: 0.85; stroke: #ff0000; stroke-opacity: 0.85; stroke-linejoin: miter"/>
     <use xlink:href="#mcb7b4ff48f" x="227.339602" y="94.6043" style="fill: #ff0000; fill-opacity: 0.85; stroke: #ff0000; stroke-opacity: 0.85; stroke-linejoin: miter"/>
     <use xlink:href="#mcb7b4ff48f" x="251.555966" y="69.833731" style="fill: #ff0000; fill-opacity: 0.85; stroke: #ff0000; stroke-opacity: 0.85; stroke-linejoin: miter"/>
     <use xlink:href="#mcb7b4ff48f" x="275.77233" y="80.779534" style="fill: #ff0000; fill-opacity: 0.85; stroke: #ff0000; stroke-opacity: 0.85; stroke-linejoin: miter"/>
     <use xlink:href="#mcb7b4ff48f" x="299.988693" y="88.637803" style="fill: #ff0000; fill-opacity: 0.85; stroke: #ff0000; stroke-opacity: 0.85; stroke-linejoin: miter"/>
    </g>
   </g>
   <g id="line2d_23">
    <path d="M 57.825057 78.86635 
L 82.04142 75.651986 
L 106.257784 104.611884 
L 130.474148 65.717385 
L 154.690511 61.87444 
L 178.906875 90.057073 
L 203.123239 113.87575 
L 227.339602 85.365135 
L 251.555966 93.936408 
L 275.77233 85.351074 
L 299.988693 95.531397 
" clip-path="url(#p6d17975060)" style="fill: none; stroke: #008000; stroke-opacity: 0.85; stroke-linecap: square"/>
    <defs>
     <path id="ma242067713" d="M 0 -3 
L -2.85317 -0.927051 
L -1.763356 2.427051 
L 1.763356 2.427051 
L 2.85317 -0.927051 
z
" style="stroke: #008000; stroke-opacity: 0.85; stroke-linejoin: miter"/>
    </defs>
    <g clip-path="url(#p6d17975060)">
     <use xlink:href="#ma242067713" x="57.825057" y="78.86635" style="fill: #008000; fill-opacity: 0.85; stroke: #008000; stroke-opacity: 0.85; stroke-linejoin: miter"/>
     <use xlink:href="#ma242067713" x="82.04142" y="75.651986" style="fill: #008000; fill-opacity: 0.85; stroke: #008000; stroke-opacity: 0.85; stroke-linejoin: miter"/>
     <use xlink:href="#ma242067713" x="106.257784" y="104.611884" style="fill: #008000; fill-opacity: 0.85; stroke: #008000; stroke-opacity: 0.85; stroke-linejoin: miter"/>
     <use xlink:href="#ma242067713" x="130.474148" y="65.717385" style="fill: #008000; fill-opacity: 0.85; stroke: #008000; stroke-opacity: 0.85; stroke-linejoin: miter"/>
     <use xlink:href="#ma242067713" x="154.690511" y="61.87444" style="fill: #008000; fill-opacity: 0.85; stroke: #008000; stroke-opacity: 0.85; stroke-linejoin: miter"/>
     <use xlink:href="#ma242067713" x="178.906875" y="90.057073" style="fill: #008000; fill-opacity: 0.85; stroke: #008000; stroke-opacity: 0.85; stroke-linejoin: miter"/>
     <use xlink:href="#ma242067713" x="203.123239" y="113.87575" style="fill: #008000; fill-opacity: 0.85; stroke: #008000; stroke-opacity: 0.85; stroke-linejoin: miter"/>
     <use xlink:href="#ma242067713" x="227.339602" y="85.365135" style="fill: #008000; fill-opacity: 0.85; stroke: #008000; stroke-opacity: 0.85; stroke-linejoin: miter"/>
     <use xlink:href="#ma242067713" x="251.555966" y="93.936408" style="fill: #008000; fill-opacity: 0.85; stroke: #008000; stroke-opacity: 0.85; stroke-linejoin: miter"/>
     <use xlink:href="#ma242067713" x="275.77233" y="85.351074" style="fill: #008000; fill-opacity: 0.85; stroke: #008000; stroke-opacity: 0.85; stroke-linejoin: miter"/>
     <use xlink:href="#ma242067713" x="299.988693" y="95.531397" style="fill: #008000; fill-opacity: 0.85; stroke: #008000; stroke-opacity: 0.85; stroke-linejoin: miter"/>
    </g>
   </g>
   <g id="line2d_24">
    <path d="M 57.825057 78.86635 
L 82.04142 102.882105 
L 106.257784 106.236742 
L 130.474148 73.016484 
L 154.690511 85.231557 
L 178.906875 99.42425 
L 203.123239 108.365646 
L 227.339602 109.07528 
L 251.555966 100.410268 
L 275.77233 75.132336 
L 299.988693 100.073058 
" clip-path="url(#p6d17975060)" style="fill: none; stroke: #800080; stroke-opacity: 0.85; stroke-linecap: square"/>
    <defs>
     <path id="m3d4d0f9fd8" d="M -3 3 
L 3 3 
L 3 -3 
L -3 -3 
z
" style="stroke: #800080; stroke-opacity: 0.85; stroke-linejoin: miter"/>
    </defs>
    <g clip-path="url(#p6d17975060)">
     <use xlink:href="#m3d4d0f9fd8" x="57.825057" y="78.86635" style="fill: #800080; fill-opacity: 0.85; stroke: #800080; stroke-opacity: 0.85; stroke-linejoin: miter"/>
     <use xlink:href="#m3d4d0f9fd8" x="82.04142" y="102.882105" style="fill: #800080; fill-opacity: 0.85; stroke: #800080; stroke-opacity: 0.85; stroke-linejoin: miter"/>
     <use xlink:href="#m3d4d0f9fd8" x="106.257784" y="106.236742" style="fill: #800080; fill-opacity: 0.85; stroke: #800080; stroke-opacity: 0.85; stroke-linejoin: miter"/>
     <use xlink:href="#m3d4d0f9fd8" x="130.474148" y="73.016484" style="fill: #800080; fill-opacity: 0.85; stroke: #800080; stroke-opacity: 0.85; stroke-linejoin: miter"/>
     <use xlink:href="#m3d4d0f9fd8" x="154.690511" y="85.231557" style="fill: #800080; fill-opacity: 0.85; stroke: #800080; stroke-opacity: 0.85; stroke-linejoin: miter"/>
     <use xlink:href="#m3d4d0f9fd8" x="178.906875" y="99.42425" style="fill: #800080; fill-opacity: 0.85; stroke: #800080; stroke-opacity: 0.85; stroke-linejoin: miter"/>
     <use xlink:href="#m3d4d0f9fd8" x="203.123239" y="108.365646" style="fill: #800080; fill-opacity: 0.85; stroke: #800080; stroke-opacity: 0.85; stroke-linejoin: miter"/>
     <use xlink:href="#m3d4d0f9fd8" x="227.339602" y="109.07528" style="fill: #800080; fill-opacity: 0.85; stroke: #800080; stroke-opacity: 0.85; stroke-linejoin: miter"/>
     <use xlink:href="#m3d4d0f9fd8" x="251.555966" y="100.410268" style="fill: #800080; fill-opacity: 0.85; stroke: #800080; stroke-opacity: 0.85; stroke-linejoin: miter"/>
     <use xlink:href="#m3d4d0f9fd8" x="275.77233" y="75.132336" style="fill: #800080; fill-opacity: 0.85; stroke: #800080; stroke-opacity: 0.85; stroke-linejoin: miter"/>
     <use xlink:href="#m3d4d0f9fd8" x="299.988693" y="100.073058" style="fill: #800080; fill-opacity: 0.85; stroke: #800080; stroke-opacity: 0.85; stroke-linejoin: miter"/>
    </g>
   </g>
   <g id="line2d_25">
    <path d="M 57.825057 78.86635 
L 82.04142 105.287916 
L 106.257784 117.817752 
L 130.474148 117.522272 
L 154.690511 66.091698 
L 178.906875 84.379996 
L 203.123239 132.660196 
L 227.339602 89.483799 
L 251.555966 98.01992 
L 275.77233 52.184993 
L 299.988693 126.486794 
" clip-path="url(#p6d17975060)" style="fill: none; stroke: #ffa500; stroke-opacity: 0.85; stroke-linecap: square"/>
    <defs>
     <path id="ma7805ef437" d="M 0 -3 
L -2.598076 -1.5 
L -2.598076 1.5 
L -0 3 
L 2.598076 1.5 
L 2.598076 -1.5 
z
" style="stroke: #ffa500; stroke-opacity: 0.85; stroke-linejoin: miter"/>
    </defs>
    <g clip-path="url(#p6d17975060)">
     <use xlink:href="#ma7805ef437" x="57.825057" y="78.86635" style="fill: #ffa500; fill-opacity: 0.85; stroke: #ffa500; stroke-opacity: 0.85; stroke-linejoin: miter"/>
     <use xlink:href="#ma7805ef437" x="82.04142" y="105.287916" style="fill: #ffa500; fill-opacity: 0.85; stroke: #ffa500; stroke-opacity: 0.85; stroke-linejoin: miter"/>
     <use xlink:href="#ma7805ef437" x="106.257784" y="117.817752" style="fill: #ffa500; fill-opacity: 0.85; stroke: #ffa500; stroke-opacity: 0.85; stroke-linejoin: miter"/>
     <use xlink:href="#ma7805ef437" x="130.474148" y="117.522272" style="fill: #ffa500; fill-opacity: 0.85; stroke: #ffa500; stroke-opacity: 0.85; stroke-linejoin: miter"/>
     <use xlink:href="#ma7805ef437" x="154.690511" y="66.091698" style="fill: #ffa500; fill-opacity: 0.85; stroke: #ffa500; stroke-opacity: 0.85; stroke-linejoin: miter"/>
     <use xlink:href="#ma7805ef437" x="178.906875" y="84.379996" style="fill: #ffa500; fill-opacity: 0.85; stroke: #ffa500; stroke-opacity: 0.85; stroke-linejoin: miter"/>
     <use xlink:href="#ma7805ef437" x="203.123239" y="132.660196" style="fill: #ffa500; fill-opacity: 0.85; stroke: #ffa500; stroke-opacity: 0.85; stroke-linejoin: miter"/>
     <use xlink:href="#ma7805ef437" x="227.339602" y="89.483799" style="fill: #ffa500; fill-opacity: 0.85; stroke: #ffa500; stroke-opacity: 0.85; stroke-linejoin: miter"/>
     <use xlink:href="#ma7805ef437" x="251.555966" y="98.01992" style="fill: #ffa500; fill-opacity: 0.85; stroke: #ffa500; stroke-opacity: 0.85; stroke-linejoin: miter"/>
     <use xlink:href="#ma7805ef437" x="275.77233" y="52.184993" style="fill: #ffa500; fill-opacity: 0.85; stroke: #ffa500; stroke-opacity: 0.85; stroke-linejoin: miter"/>
     <use xlink:href="#ma7805ef437" x="299.988693" y="126.486794" style="fill: #ffa500; fill-opacity: 0.85; stroke: #ffa500; stroke-opacity: 0.85; stroke-linejoin: miter"/>
    </g>
   </g>
   <g id="line2d_26">
    <path d="M 57.825057 78.86635 
L 82.04142 114.478428 
L 106.257784 109.217066 
L 130.474148 64.282519 
L 154.690511 83.285131 
L 178.906875 64.368299 
L 203.123239 116.380343 
L 227.339602 102.507682 
L 251.555966 99.314692 
L 275.77233 71.869795 
L 299.988693 120.208981 
" clip-path="url(#p6d17975060)" style="fill: none; stroke: #a52a2a; stroke-opacity: 0.85; stroke-linecap: square"/>
    <defs>
     <path id="m3ddcc3321d" d="M 0 -3 
L -0.673542 -0.927051 
L -2.85317 -0.927051 
L -1.089814 0.354102 
L -1.763356 2.427051 
L -0 1.145898 
L 1.763356 2.427051 
L 1.089814 0.354102 
L 2.85317 -0.927051 
L 0.673542 -0.927051 
z
" style="stroke: #a52a2a; stroke-opacity: 0.85; stroke-linejoin: bevel"/>
    </defs>
    <g clip-path="url(#p6d17975060)">
     <use xlink:href="#m3ddcc3321d" x="57.825057" y="78.86635" style="fill: #a52a2a; fill-opacity: 0.85; stroke: #a52a2a; stroke-opacity: 0.85; stroke-linejoin: bevel"/>
     <use xlink:href="#m3ddcc3321d" x="82.04142" y="114.478428" style="fill: #a52a2a; fill-opacity: 0.85; stroke: #a52a2a; stroke-opacity: 0.85; stroke-linejoin: bevel"/>
     <use xlink:href="#m3ddcc3321d" x="106.257784" y="109.217066" style="fill: #a52a2a; fill-opacity: 0.85; stroke: #a52a2a; stroke-opacity: 0.85; stroke-linejoin: bevel"/>
     <use xlink:href="#m3ddcc3321d" x="130.474148" y="64.282519" style="fill: #a52a2a; fill-opacity: 0.85; stroke: #a52a2a; stroke-opacity: 0.85; stroke-linejoin: bevel"/>
     <use xlink:href="#m3ddcc3321d" x="154.690511" y="83.285131" style="fill: #a52a2a; fill-opacity: 0.85; stroke: #a52a2a; stroke-opacity: 0.85; stroke-linejoin: bevel"/>
     <use xlink:href="#m3ddcc3321d" x="178.906875" y="64.368299" style="fill: #a52a2a; fill-opacity: 0.85; stroke: #a52a2a; stroke-opacity: 0.85; stroke-linejoin: bevel"/>
     <use xlink:href="#m3ddcc3321d" x="203.123239" y="116.380343" style="fill: #a52a2a; fill-opacity: 0.85; stroke: #a52a2a; stroke-opacity: 0.85; stroke-linejoin: bevel"/>
     <use xlink:href="#m3ddcc3321d" x="227.339602" y="102.507682" style="fill: #a52a2a; fill-opacity: 0.85; stroke: #a52a2a; stroke-opacity: 0.85; stroke-linejoin: bevel"/>
     <use xlink:href="#m3ddcc3321d" x="251.555966" y="99.314692" style="fill: #a52a2a; fill-opacity: 0.85; stroke: #a52a2a; stroke-opacity: 0.85; stroke-linejoin: bevel"/>
     <use xlink:href="#m3ddcc3321d" x="275.77233" y="71.869795" style="fill: #a52a2a; fill-opacity: 0.85; stroke: #a52a2a; stroke-opacity: 0.85; stroke-linejoin: bevel"/>
     <use xlink:href="#m3ddcc3321d" x="299.988693" y="120.208981" style="fill: #a52a2a; fill-opacity: 0.85; stroke: #a52a2a; stroke-opacity: 0.85; stroke-linejoin: bevel"/>
    </g>
   </g>
   <g id="patch_3">
    <path d="M 45.716875 170.198125 
L 45.716875 22.318125 
" style="fill: none; stroke: #000000; stroke-width: 0.8; stroke-linejoin: miter; stroke-linecap: square"/>
   </g>
   <g id="patch_4">
    <path d="M 312.096875 170.198125 
L 312.096875 22.318125 
" style="fill: none; stroke: #000000; stroke-width: 0.8; stroke-linejoin: miter; stroke-linecap: square"/>
   </g>
   <g id="patch_5">
    <path d="M 45.716875 170.198125 
L 312.096875 170.198125 
" style="fill: none; stroke: #000000; stroke-width: 0.8; stroke-linejoin: miter; stroke-linecap: square"/>
   </g>
   <g id="patch_6">
    <path d="M 45.716875 22.318125 
L 312.096875 22.318125 
" style="fill: none; stroke: #000000; stroke-width: 0.8; stroke-linejoin: miter; stroke-linecap: square"/>
   </g>
   <g id="text_13">
    <!-- 5-Fold CV - Multimodal -->
    <g transform="translate(102.332812 16.318125) scale(0.12 -0.12)">
     <defs>
      <path id="DejaVuSans-BoldOblique-35" d="M 1131 4666 
L 4122 4666 
L 3950 3781 
L 1919 3781 
L 1778 3059 
Q 1916 3097 2064 3117 
Q 2213 3138 2363 3138 
Q 3078 3138 3481 2811 
Q 3884 2484 3884 1906 
Q 3884 988 3262 448 
Q 2641 -91 1575 -91 
Q 1184 -91 815 -14 
Q 447 63 84 219 
L 269 1166 
Q 616 941 942 834 
Q 1269 728 1606 728 
Q 2100 728 2397 986 
Q 2694 1244 2694 1663 
Q 2694 1963 2469 2139 
Q 2244 2316 1856 2316 
Q 1594 2316 1289 2248 
Q 984 2181 622 2041 
L 1131 4666 
z
" transform="scale(0.015625)"/>
      <path id="DejaVuSans-BoldOblique-2d" d="M 341 2297 
L 2303 2297 
L 2125 1388 
L 159 1388 
L 341 2297 
z
" transform="scale(0.015625)"/>
      <path id="DejaVuSans-BoldOblique-46" d="M 1044 4666 
L 4288 4666 
L 4109 3756 
L 2069 3756 
L 1900 2888 
L 3822 2888 
L 3641 1978 
L 1722 1978 
L 1338 0 
L 134 0 
L 1044 4666 
z
" transform="scale(0.015625)"/>
      <path id="DejaVuSans-BoldOblique-4d" d="M 1044 4666 
L 2522 4666 
L 3122 2188 
L 4697 4666 
L 6234 4666 
L 5325 0 
L 4184 0 
L 4850 3444 
L 3231 897 
L 2584 897 
L 1941 3444 
L 1275 0 
L 134 0 
L 1044 4666 
z
" transform="scale(0.015625)"/>
     </defs>
     <use xlink:href="#DejaVuSans-BoldOblique-35"/>
     <use xlink:href="#DejaVuSans-BoldOblique-2d" transform="translate(69.580078 0)"/>
     <use xlink:href="#DejaVuSans-BoldOblique-46" transform="translate(111.083984 0)"/>
     <use xlink:href="#DejaVuSans-BoldOblique-6f" transform="translate(171.644531 0)"/>
     <use xlink:href="#DejaVuSans-BoldOblique-6c" transform="translate(240.345703 0)"/>
     <use xlink:href="#DejaVuSans-BoldOblique-64" transform="translate(274.623047 0)"/>
     <use xlink:href="#DejaVuSans-BoldOblique-20" transform="translate(346.205078 0)"/>
     <use xlink:href="#DejaVuSans-BoldOblique-43" transform="translate(381.019531 0)"/>
     <use xlink:href="#DejaVuSans-BoldOblique-56" transform="translate(454.408203 0)"/>
     <use xlink:href="#DejaVuSans-BoldOblique-20" transform="translate(531.800781 0)"/>
     <use xlink:href="#DejaVuSans-BoldOblique-2d" transform="translate(566.615234 0)"/>
     <use xlink:href="#DejaVuSans-BoldOblique-20" transform="translate(608.119141 0)"/>
     <use xlink:href="#DejaVuSans-BoldOblique-4d" transform="translate(642.933594 0)"/>
     <use xlink:href="#DejaVuSans-BoldOblique-75" transform="translate(742.445312 0)"/>
     <use xlink:href="#DejaVuSans-BoldOblique-6c" transform="translate(813.636719 0)"/>
     <use xlink:href="#DejaVuSans-BoldOblique-74" transform="translate(847.914062 0)"/>
     <use xlink:href="#DejaVuSans-BoldOblique-69" transform="translate(895.716797 0)"/>
     <use xlink:href="#DejaVuSans-BoldOblique-6d" transform="translate(929.994141 0)"/>
     <use xlink:href="#DejaVuSans-BoldOblique-6f" transform="translate(1034.193359 0)"/>
     <use xlink:href="#DejaVuSans-BoldOblique-64" transform="translate(1102.894531 0)"/>
     <use xlink:href="#DejaVuSans-BoldOblique-61" transform="translate(1174.476562 0)"/>
     <use xlink:href="#DejaVuSans-BoldOblique-6c" transform="translate(1241.957031 0)"/>
    </g>
   </g>
   <g id="legend_1">
    <g id="patch_7">
     <path d="M 331.715875 108.78 
L 413.095562 108.78 
Q 414.895562 108.78 414.895562 106.98 
L 414.895562 28.618125 
Q 414.895562 26.818125 413.095562 26.818125 
L 331.715875 26.818125 
Q 329.915875 26.818125 329.915875 28.618125 
L 329.915875 106.98 
Q 329.915875 108.78 331.715875 108.78 
z
" style="fill: #ffffff; opacity: 0.8; stroke: #cccccc; stroke-linejoin: miter"/>
    </g>
    <g id="LineCollection_7">
     <path d="M 342.515875 38.606719 
L 342.515875 29.606719 
" style="fill: none; stroke: #4169e1; stroke-opacity: 0.85"/>
    </g>
    <g id="line2d_27">
     <path d="M 333.515875 34.106719 
L 351.515875 34.106719 
" style="fill: none; stroke: #4169e1; stroke-opacity: 0.85; stroke-linecap: square"/>
    </g>
    <g id="line2d_28">
     <g>
      <use xlink:href="#m140d7a513c" x="342.515875" y="34.106719" style="fill: #4169e1; fill-opacity: 0.85; stroke: #4169e1; stroke-opacity: 0.85"/>
     </g>
    </g>
    <g id="text_14">
     <!-- Random -->
     <g transform="translate(358.715875 37.256719) scale(0.09 -0.09)">
      <defs>
       <path id="DejaVuSans-52" d="M 2841 2188 
Q 3044 2119 3236 1894 
Q 3428 1669 3622 1275 
L 4263 0 
L 3584 0 
L 2988 1197 
Q 2756 1666 2539 1819 
Q 2322 1972 1947 1972 
L 1259 1972 
L 1259 0 
L 628 0 
L 628 4666 
L 2053 4666 
Q 2853 4666 3247 4331 
Q 3641 3997 3641 3322 
Q 3641 2881 3436 2590 
Q 3231 2300 2841 2188 
z
M 1259 4147 
L 1259 2491 
L 2053 2491 
Q 2509 2491 2742 2702 
Q 2975 2913 2975 3322 
Q 2975 3731 2742 3939 
Q 2509 4147 2053 4147 
L 1259 4147 
z
" transform="scale(0.015625)"/>
       <path id="DejaVuSans-61" d="M 2194 1759 
Q 1497 1759 1228 1600 
Q 959 1441 959 1056 
Q 959 750 1161 570 
Q 1363 391 1709 391 
Q 2188 391 2477 730 
Q 2766 1069 2766 1631 
L 2766 1759 
L 2194 1759 
z
M 3341 1997 
L 3341 0 
L 2766 0 
L 2766 531 
Q 2569 213 2275 61 
Q 1981 -91 1556 -91 
Q 1019 -91 701 211 
Q 384 513 384 1019 
Q 384 1609 779 1909 
Q 1175 2209 1959 2209 
L 2766 2209 
L 2766 2266 
Q 2766 2663 2505 2880 
Q 2244 3097 1772 3097 
Q 1472 3097 1187 3025 
Q 903 2953 641 2809 
L 641 3341 
Q 956 3463 1253 3523 
Q 1550 3584 1831 3584 
Q 2591 3584 2966 3190 
Q 3341 2797 3341 1997 
z
" transform="scale(0.015625)"/>
       <path id="DejaVuSans-6e" d="M 3513 2113 
L 3513 0 
L 2938 0 
L 2938 2094 
Q 2938 2591 2744 2837 
Q 2550 3084 2163 3084 
Q 1697 3084 1428 2787 
Q 1159 2491 1159 1978 
L 1159 0 
L 581 0 
L 581 3500 
L 1159 3500 
L 1159 2956 
Q 1366 3272 1645 3428 
Q 1925 3584 2291 3584 
Q 2894 3584 3203 3211 
Q 3513 2838 3513 2113 
z
" transform="scale(0.015625)"/>
       <path id="DejaVuSans-64" d="M 2906 2969 
L 2906 4863 
L 3481 4863 
L 3481 0 
L 2906 0 
L 2906 525 
Q 2725 213 2448 61 
Q 2172 -91 1784 -91 
Q 1150 -91 751 415 
Q 353 922 353 1747 
Q 353 2572 751 3078 
Q 1150 3584 1784 3584 
Q 2172 3584 2448 3432 
Q 2725 3281 2906 2969 
z
M 947 1747 
Q 947 1113 1208 752 
Q 1469 391 1925 391 
Q 2381 391 2643 752 
Q 2906 1113 2906 1747 
Q 2906 2381 2643 2742 
Q 2381 3103 1925 3103 
Q 1469 3103 1208 2742 
Q 947 2381 947 1747 
z
" transform="scale(0.015625)"/>
       <path id="DejaVuSans-6f" d="M 1959 3097 
Q 1497 3097 1228 2736 
Q 959 2375 959 1747 
Q 959 1119 1226 758 
Q 1494 397 1959 397 
Q 2419 397 2687 759 
Q 2956 1122 2956 1747 
Q 2956 2369 2687 2733 
Q 2419 3097 1959 3097 
z
M 1959 3584 
Q 2709 3584 3137 3096 
Q 3566 2609 3566 1747 
Q 3566 888 3137 398 
Q 2709 -91 1959 -91 
Q 1206 -91 779 398 
Q 353 888 353 1747 
Q 353 2609 779 3096 
Q 1206 3584 1959 3584 
z
" transform="scale(0.015625)"/>
       <path id="DejaVuSans-6d" d="M 3328 2828 
Q 3544 3216 3844 3400 
Q 4144 3584 4550 3584 
Q 5097 3584 5394 3201 
Q 5691 2819 5691 2113 
L 5691 0 
L 5113 0 
L 5113 2094 
Q 5113 2597 4934 2840 
Q 4756 3084 4391 3084 
Q 3944 3084 3684 2787 
Q 3425 2491 3425 1978 
L 3425 0 
L 2847 0 
L 2847 2094 
Q 2847 2600 2669 2842 
Q 2491 3084 2119 3084 
Q 1678 3084 1418 2786 
Q 1159 2488 1159 1978 
L 1159 0 
L 581 0 
L 581 3500 
L 1159 3500 
L 1159 2956 
Q 1356 3278 1631 3431 
Q 1906 3584 2284 3584 
Q 2666 3584 2933 3390 
Q 3200 3197 3328 2828 
z
" transform="scale(0.015625)"/>
      </defs>
      <use xlink:href="#DejaVuSans-52"/>
      <use xlink:href="#DejaVuSans-61" transform="translate(67.232422 0)"/>
      <use xlink:href="#DejaVuSans-6e" transform="translate(128.511719 0)"/>
      <use xlink:href="#DejaVuSans-64" transform="translate(191.890625 0)"/>
      <use xlink:href="#DejaVuSans-6f" transform="translate(255.367188 0)"/>
      <use xlink:href="#DejaVuSans-6d" transform="translate(316.548828 0)"/>
     </g>
    </g>
    <g id="LineCollection_8">
     <path d="M 342.515875 51.817031 
L 342.515875 42.817031 
" style="fill: none; stroke: #ff0000; stroke-opacity: 0.85"/>
    </g>
    <g id="line2d_29">
     <path d="M 333.515875 47.317031 
L 351.515875 47.317031 
" style="fill: none; stroke: #ff0000; stroke-opacity: 0.85; stroke-linecap: square"/>
    </g>
    <g id="line2d_30">
     <g>
      <use xlink:href="#mcb7b4ff48f" x="342.515875" y="47.317031" style="fill: #ff0000; fill-opacity: 0.85; stroke: #ff0000; stroke-opacity: 0.85; stroke-linejoin: miter"/>
     </g>
    </g>
    <g id="text_15">
     <!-- Uncertainty -->
     <g transform="translate(358.715875 50.467031) scale(0.09 -0.09)">
      <defs>
       <path id="DejaVuSans-55" d="M 556 4666 
L 1191 4666 
L 1191 1831 
Q 1191 1081 1462 751 
Q 1734 422 2344 422 
Q 2950 422 3222 751 
Q 3494 1081 3494 1831 
L 3494 4666 
L 4128 4666 
L 4128 1753 
Q 4128 841 3676 375 
Q 3225 -91 2344 -91 
Q 1459 -91 1007 375 
Q 556 841 556 1753 
L 556 4666 
z
" transform="scale(0.015625)"/>
       <path id="DejaVuSans-63" d="M 3122 3366 
L 3122 2828 
Q 2878 2963 2633 3030 
Q 2388 3097 2138 3097 
Q 1578 3097 1268 2742 
Q 959 2388 959 1747 
Q 959 1106 1268 751 
Q 1578 397 2138 397 
Q 2388 397 2633 464 
Q 2878 531 3122 666 
L 3122 134 
Q 2881 22 2623 -34 
Q 2366 -91 2075 -91 
Q 1284 -91 818 406 
Q 353 903 353 1747 
Q 353 2603 823 3093 
Q 1294 3584 2113 3584 
Q 2378 3584 2631 3529 
Q 2884 3475 3122 3366 
z
" transform="scale(0.015625)"/>
       <path id="DejaVuSans-65" d="M 3597 1894 
L 3597 1613 
L 953 1613 
Q 991 1019 1311 708 
Q 1631 397 2203 397 
Q 2534 397 2845 478 
Q 3156 559 3463 722 
L 3463 178 
Q 3153 47 2828 -22 
Q 2503 -91 2169 -91 
Q 1331 -91 842 396 
Q 353 884 353 1716 
Q 353 2575 817 3079 
Q 1281 3584 2069 3584 
Q 2775 3584 3186 3129 
Q 3597 2675 3597 1894 
z
M 3022 2063 
Q 3016 2534 2758 2815 
Q 2500 3097 2075 3097 
Q 1594 3097 1305 2825 
Q 1016 2553 972 2059 
L 3022 2063 
z
" transform="scale(0.015625)"/>
       <path id="DejaVuSans-72" d="M 2631 2963 
Q 2534 3019 2420 3045 
Q 2306 3072 2169 3072 
Q 1681 3072 1420 2755 
Q 1159 2438 1159 1844 
L 1159 0 
L 581 0 
L 581 3500 
L 1159 3500 
L 1159 2956 
Q 1341 3275 1631 3429 
Q 1922 3584 2338 3584 
Q 2397 3584 2469 3576 
Q 2541 3569 2628 3553 
L 2631 2963 
z
" transform="scale(0.015625)"/>
       <path id="DejaVuSans-74" d="M 1172 4494 
L 1172 3500 
L 2356 3500 
L 2356 3053 
L 1172 3053 
L 1172 1153 
Q 1172 725 1289 603 
Q 1406 481 1766 481 
L 2356 481 
L 2356 0 
L 1766 0 
Q 1100 0 847 248 
Q 594 497 594 1153 
L 594 3053 
L 172 3053 
L 172 3500 
L 594 3500 
L 594 4494 
L 1172 4494 
z
" transform="scale(0.015625)"/>
       <path id="DejaVuSans-69" d="M 603 3500 
L 1178 3500 
L 1178 0 
L 603 0 
L 603 3500 
z
M 603 4863 
L 1178 4863 
L 1178 4134 
L 603 4134 
L 603 4863 
z
" transform="scale(0.015625)"/>
       <path id="DejaVuSans-79" d="M 2059 -325 
Q 1816 -950 1584 -1140 
Q 1353 -1331 966 -1331 
L 506 -1331 
L 506 -850 
L 844 -850 
Q 1081 -850 1212 -737 
Q 1344 -625 1503 -206 
L 1606 56 
L 191 3500 
L 800 3500 
L 1894 763 
L 2988 3500 
L 3597 3500 
L 2059 -325 
z
" transform="scale(0.015625)"/>
      </defs>
      <use xlink:href="#DejaVuSans-55"/>
      <use xlink:href="#DejaVuSans-6e" transform="translate(73.193359 0)"/>
      <use xlink:href="#DejaVuSans-63" transform="translate(136.572266 0)"/>
      <use xlink:href="#DejaVuSans-65" transform="translate(191.552734 0)"/>
      <use xlink:href="#DejaVuSans-72" transform="translate(253.076172 0)"/>
      <use xlink:href="#DejaVuSans-74" transform="translate(294.189453 0)"/>
      <use xlink:href="#DejaVuSans-61" transform="translate(333.398438 0)"/>
      <use xlink:href="#DejaVuSans-69" transform="translate(394.677734 0)"/>
      <use xlink:href="#DejaVuSans-6e" transform="translate(422.460938 0)"/>
      <use xlink:href="#DejaVuSans-74" transform="translate(485.839844 0)"/>
      <use xlink:href="#DejaVuSans-79" transform="translate(525.048828 0)"/>
     </g>
    </g>
    <g id="LineCollection_9">
     <path d="M 342.515875 65.027344 
L 342.515875 56.027344 
" style="fill: none; stroke: #008000; stroke-opacity: 0.85"/>
    </g>
    <g id="line2d_31">
     <path d="M 333.515875 60.527344 
L 351.515875 60.527344 
" style="fill: none; stroke: #008000; stroke-opacity: 0.85; stroke-linecap: square"/>
    </g>
    <g id="line2d_32">
     <g>
      <use xlink:href="#ma242067713" x="342.515875" y="60.527344" style="fill: #008000; fill-opacity: 0.85; stroke: #008000; stroke-opacity: 0.85; stroke-linejoin: miter"/>
     </g>
    </g>
    <g id="text_16">
     <!-- Entropy -->
     <g transform="translate(358.715875 63.677344) scale(0.09 -0.09)">
      <defs>
       <path id="DejaVuSans-45" d="M 628 4666 
L 3578 4666 
L 3578 4134 
L 1259 4134 
L 1259 2753 
L 3481 2753 
L 3481 2222 
L 1259 2222 
L 1259 531 
L 3634 531 
L 3634 0 
L 628 0 
L 628 4666 
z
" transform="scale(0.015625)"/>
       <path id="DejaVuSans-70" d="M 1159 525 
L 1159 -1331 
L 581 -1331 
L 581 3500 
L 1159 3500 
L 1159 2969 
Q 1341 3281 1617 3432 
Q 1894 3584 2278 3584 
Q 2916 3584 3314 3078 
Q 3713 2572 3713 1747 
Q 3713 922 3314 415 
Q 2916 -91 2278 -91 
Q 1894 -91 1617 61 
Q 1341 213 1159 525 
z
M 3116 1747 
Q 3116 2381 2855 2742 
Q 2594 3103 2138 3103 
Q 1681 3103 1420 2742 
Q 1159 2381 1159 1747 
Q 1159 1113 1420 752 
Q 1681 391 2138 391 
Q 2594 391 2855 752 
Q 3116 1113 3116 1747 
z
" transform="scale(0.015625)"/>
      </defs>
      <use xlink:href="#DejaVuSans-45"/>
      <use xlink:href="#DejaVuSans-6e" transform="translate(63.183594 0)"/>
      <use xlink:href="#DejaVuSans-74" transform="translate(126.5625 0)"/>
      <use xlink:href="#DejaVuSans-72" transform="translate(165.771484 0)"/>
      <use xlink:href="#DejaVuSans-6f" transform="translate(204.634766 0)"/>
      <use xlink:href="#DejaVuSans-70" transform="translate(265.816406 0)"/>
      <use xlink:href="#DejaVuSans-79" transform="translate(329.292969 0)"/>
     </g>
    </g>
    <g id="LineCollection_10">
     <path d="M 342.515875 78.237656 
L 342.515875 69.237656 
" style="fill: none; stroke: #800080; stroke-opacity: 0.85"/>
    </g>
    <g id="line2d_33">
     <path d="M 333.515875 73.737656 
L 351.515875 73.737656 
" style="fill: none; stroke: #800080; stroke-opacity: 0.85; stroke-linecap: square"/>
    </g>
    <g id="line2d_34">
     <g>
      <use xlink:href="#m3d4d0f9fd8" x="342.515875" y="73.737656" style="fill: #800080; fill-opacity: 0.85; stroke: #800080; stroke-opacity: 0.85; stroke-linejoin: miter"/>
     </g>
    </g>
    <g id="text_17">
     <!-- Margin -->
     <g transform="translate(358.715875 76.887656) scale(0.09 -0.09)">
      <defs>
       <path id="DejaVuSans-4d" d="M 628 4666 
L 1569 4666 
L 2759 1491 
L 3956 4666 
L 4897 4666 
L 4897 0 
L 4281 0 
L 4281 4097 
L 3078 897 
L 2444 897 
L 1241 4097 
L 1241 0 
L 628 0 
L 628 4666 
z
" transform="scale(0.015625)"/>
       <path id="DejaVuSans-67" d="M 2906 1791 
Q 2906 2416 2648 2759 
Q 2391 3103 1925 3103 
Q 1463 3103 1205 2759 
Q 947 2416 947 1791 
Q 947 1169 1205 825 
Q 1463 481 1925 481 
Q 2391 481 2648 825 
Q 2906 1169 2906 1791 
z
M 3481 434 
Q 3481 -459 3084 -895 
Q 2688 -1331 1869 -1331 
Q 1566 -1331 1297 -1286 
Q 1028 -1241 775 -1147 
L 775 -588 
Q 1028 -725 1275 -790 
Q 1522 -856 1778 -856 
Q 2344 -856 2625 -561 
Q 2906 -266 2906 331 
L 2906 616 
Q 2728 306 2450 153 
Q 2172 0 1784 0 
Q 1141 0 747 490 
Q 353 981 353 1791 
Q 353 2603 747 3093 
Q 1141 3584 1784 3584 
Q 2172 3584 2450 3431 
Q 2728 3278 2906 2969 
L 2906 3500 
L 3481 3500 
L 3481 434 
z
" transform="scale(0.015625)"/>
      </defs>
      <use xlink:href="#DejaVuSans-4d"/>
      <use xlink:href="#DejaVuSans-61" transform="translate(86.279297 0)"/>
      <use xlink:href="#DejaVuSans-72" transform="translate(147.558594 0)"/>
      <use xlink:href="#DejaVuSans-67" transform="translate(186.921875 0)"/>
      <use xlink:href="#DejaVuSans-69" transform="translate(250.398438 0)"/>
      <use xlink:href="#DejaVuSans-6e" transform="translate(278.181641 0)"/>
     </g>
    </g>
    <g id="LineCollection_11">
     <path d="M 342.515875 91.447969 
L 342.515875 82.447969 
" style="fill: none; stroke: #ffa500; stroke-opacity: 0.85"/>
    </g>
    <g id="line2d_35">
     <path d="M 333.515875 86.947969 
L 351.515875 86.947969 
" style="fill: none; stroke: #ffa500; stroke-opacity: 0.85; stroke-linecap: square"/>
    </g>
    <g id="line2d_36">
     <g>
      <use xlink:href="#ma7805ef437" x="342.515875" y="86.947969" style="fill: #ffa500; fill-opacity: 0.85; stroke: #ffa500; stroke-opacity: 0.85; stroke-linejoin: miter"/>
     </g>
    </g>
    <g id="text_18">
     <!-- Novelty -->
     <g transform="translate(358.715875 90.097969) scale(0.09 -0.09)">
      <defs>
       <path id="DejaVuSans-4e" d="M 628 4666 
L 1478 4666 
L 3547 763 
L 3547 4666 
L 4159 4666 
L 4159 0 
L 3309 0 
L 1241 3903 
L 1241 0 
L 628 0 
L 628 4666 
z
" transform="scale(0.015625)"/>
       <path id="DejaVuSans-76" d="M 191 3500 
L 800 3500 
L 1894 563 
L 2988 3500 
L 3597 3500 
L 2284 0 
L 1503 0 
L 191 3500 
z
" transform="scale(0.015625)"/>
       <path id="DejaVuSans-6c" d="M 603 4863 
L 1178 4863 
L 1178 0 
L 603 0 
L 603 4863 
z
" transform="scale(0.015625)"/>
      </defs>
      <use xlink:href="#DejaVuSans-4e"/>
      <use xlink:href="#DejaVuSans-6f" transform="translate(74.804688 0)"/>
      <use xlink:href="#DejaVuSans-76" transform="translate(135.986328 0)"/>
      <use xlink:href="#DejaVuSans-65" transform="translate(195.166016 0)"/>
      <use xlink:href="#DejaVuSans-6c" transform="translate(256.689453 0)"/>
      <use xlink:href="#DejaVuSans-74" transform="translate(284.472656 0)"/>
      <use xlink:href="#DejaVuSans-79" transform="translate(323.681641 0)"/>
     </g>
    </g>
    <g id="LineCollection_12">
     <path d="M 342.515875 104.658281 
L 342.515875 95.658281 
" style="fill: none; stroke: #a52a2a; stroke-opacity: 0.85"/>
    </g>
    <g id="line2d_37">
     <path d="M 333.515875 100.158281 
L 351.515875 100.158281 
" style="fill: none; stroke: #a52a2a; stroke-opacity: 0.85; stroke-linecap: square"/>
    </g>
    <g id="line2d_38">
     <g>
      <use xlink:href="#m3ddcc3321d" x="342.515875" y="100.158281" style="fill: #a52a2a; fill-opacity: 0.85; stroke: #a52a2a; stroke-opacity: 0.85; stroke-linejoin: bevel"/>
     </g>
    </g>
    <g id="text_19">
     <!-- Diversity -->
     <g transform="translate(358.715875 103.308281) scale(0.09 -0.09)">
      <defs>
       <path id="DejaVuSans-44" d="M 1259 4147 
L 1259 519 
L 2022 519 
Q 2988 519 3436 956 
Q 3884 1394 3884 2338 
Q 3884 3275 3436 3711 
Q 2988 4147 2022 4147 
L 1259 4147 
z
M 628 4666 
L 1925 4666 
Q 3281 4666 3915 4102 
Q 4550 3538 4550 2338 
Q 4550 1131 3912 565 
Q 3275 0 1925 0 
L 628 0 
L 628 4666 
z
" transform="scale(0.015625)"/>
       <path id="DejaVuSans-73" d="M 2834 3397 
L 2834 2853 
Q 2591 2978 2328 3040 
Q 2066 3103 1784 3103 
Q 1356 3103 1142 2972 
Q 928 2841 928 2578 
Q 928 2378 1081 2264 
Q 1234 2150 1697 2047 
L 1894 2003 
Q 2506 1872 2764 1633 
Q 3022 1394 3022 966 
Q 3022 478 2636 193 
Q 2250 -91 1575 -91 
Q 1294 -91 989 -36 
Q 684 19 347 128 
L 347 722 
Q 666 556 975 473 
Q 1284 391 1588 391 
Q 1994 391 2212 530 
Q 2431 669 2431 922 
Q 2431 1156 2273 1281 
Q 2116 1406 1581 1522 
L 1381 1569 
Q 847 1681 609 1914 
Q 372 2147 372 2553 
Q 372 3047 722 3315 
Q 1072 3584 1716 3584 
Q 2034 3584 2315 3537 
Q 2597 3491 2834 3397 
z
" transform="scale(0.015625)"/>
      </defs>
      <use xlink:href="#DejaVuSans-44"/>
      <use xlink:href="#DejaVuSans-69" transform="translate(77.001953 0)"/>
      <use xlink:href="#DejaVuSans-76" transform="translate(104.785156 0)"/>
      <use xlink:href="#DejaVuSans-65" transform="translate(163.964844 0)"/>
      <use xlink:href="#DejaVuSans-72" transform="translate(225.488281 0)"/>
      <use xlink:href="#DejaVuSans-73" transform="translate(266.601562 0)"/>
      <use xlink:href="#DejaVuSans-69" transform="translate(318.701172 0)"/>
      <use xlink:href="#DejaVuSans-74" transform="translate(346.484375 0)"/>
      <use xlink:href="#DejaVuSans-79" transform="translate(385.693359 0)"/>
     </g>
    </g>
   </g>
  </g>
 </g>
 <defs>
  <clipPath id="p6d17975060">
   <rect x="45.716875" y="22.318125" width="266.38" height="147.88"/>
  </clipPath>
 </defs>
</svg>
